Interstate-Compressed_Black.ufo
<glyph name="exclam" format="1">
  <advance width="196"/>
  <unicode hex="0021"/>
  <outline>
    <contour>
      <point x="163" y="373" type="line"/>
      <point x="143" y="187" type="line"/>
      <point x="53" y="187" type="line"/>
      <point x="33" y="373" type="line"/>
      <point x="33" y="700" type="line"/>
      <point x="163" y="700" type="line"/>
    </contour>
    <contour>
      <point x="173" y="64" type="curve" smooth="yes"/>
      <point x="173" y="20"/>
      <point x="143" y="-11"/>
      <point x="98" y="-11" type="curve" smooth="yes"/>
      <point x="53" y="-11"/>
      <point x="22" y="20"/>
      <point x="22" y="64" type="curve" smooth="yes"/>
      <point x="22" y="109"/>
      <point x="53" y="140"/>
      <point x="98" y="140" type="curve" smooth="yes"/>
      <point x="143" y="140"/>
      <point x="173" y="109"/>
    </contour>
  </outline>
</glyph>
<glyph name="quotedbl" format="1">
  <advance width="408"/>
  <unicode hex="0022"/>
  <outline>
    <contour>
      <point x="374" y="700" type="line"/>
      <point x="346" y="373" type="line"/>
      <point x="253" y="373" type="line"/>
      <point x="225" y="700" type="line"/>
    </contour>
    <contour>
      <point x="183" y="700" type="line"/>
      <point x="155" y="373" type="line"/>
      <point x="62" y="373" type="line"/>
      <point x="34" y="700" type="line"/>
    </contour>
  </outline>
</glyph>
<glyph name="numbersign" format="1">
  <advance width="465"/>
  <unicode hex="0023"/>
  <outline>
    <contour>
      <point x="439" y="150" type="line"/>
      <point x="383" y="150" type="line"/>
      <point x="383" y="0" type="line"/>
      <point x="261" y="0" type="line"/>
      <point x="261" y="150" type="line"/>
      <point x="204" y="150" type="line"/>
      <point x="204" y="0" type="line"/>
      <point x="82" y="0" type="line"/>
      <point x="82" y="150" type="line"/>
      <point x="26" y="150" type="line"/>
      <point x="26" y="261" type="line"/>
      <point x="82" y="261" type="line"/>
      <point x="82" y="439" type="line"/>
      <point x="26" y="439" type="line"/>
      <point x="26" y="550" type="line"/>
      <point x="82" y="550" type="line"/>
      <point x="82" y="700" type="line"/>
      <point x="204" y="700" type="line"/>
      <point x="204" y="550" type="line"/>
      <point x="261" y="550" type="line"/>
      <point x="261" y="700" type="line"/>
      <point x="383" y="700" type="line"/>
      <point x="383" y="550" type="line"/>
      <point x="439" y="550" type="line"/>
      <point x="439" y="439" type="line"/>
      <point x="383" y="439" type="line"/>
      <point x="383" y="261" type="line"/>
      <point x="439" y="261" type="line"/>
    </contour>
    <contour>
      <point x="261" y="261" type="line"/>
      <point x="261" y="439" type="line"/>
      <point x="204" y="439" type="line"/>
      <point x="204" y="261" type="line"/>
    </contour>
  </outline>
</glyph>
<glyph name="dollar" format="1">
  <advance width="357"/>
  <unicode hex="0024"/>
  <outline>
    <contour>
      <point x="344" y="176" type="curve" smooth="yes"/>
      <point x="344" y="88"/>
      <point x="309" y="29"/>
      <point x="245" y="6" type="curve"/>
      <point x="245" y="-66" type="line"/>
      <point x="114" y="-66" type="line"/>
      <point x="114" y="6" type="line"/>
      <point x="48" y="30"/>
      <point x="23" y="95"/>
      <point x="15" y="188" type="curve"/>
      <point x="147" y="213" type="line"/>
      <point x="154" y="120"/>
      <point x="162" y="104"/>
      <point x="181" y="104" type="curve" smooth="yes"/>
      <point x="203" y="104"/>
      <point x="210" y="117"/>
      <point x="210" y="164" type="curve" smooth="yes"/>
      <point x="210" y="231"/>
      <point x="194" y="260"/>
      <point x="136" y="309" type="curve" smooth="yes"/>
      <point x="47" y="385"/>
      <point x="20" y="444"/>
      <point x="20" y="524" type="curve" smooth="yes"/>
      <point x="20" y="610"/>
      <point x="52" y="670"/>
      <point x="114" y="694" type="curve"/>
      <point x="114" y="766" type="line"/>
      <point x="245" y="766" type="line"/>
      <point x="245" y="693" type="line"/>
      <point x="303" y="672"/>
      <point x="329" y="617"/>
      <point x="339" y="530" type="curve"/>
      <point x="210" y="504" type="line"/>
      <point x="204" y="586"/>
      <point x="195" y="596"/>
      <point x="177" y="596" type="curve" smooth="yes"/>
      <point x="157" y="596"/>
      <point x="150" y="584"/>
      <point x="150" y="541" type="curve" smooth="yes"/>
      <point x="150" y="492"/>
      <point x="163" y="469"/>
      <point x="219" y="422" type="curve" smooth="yes"/>
      <point x="314" y="343"/>
      <point x="344" y="281"/>
    </contour>
  </outline>
</glyph>
<glyph name="percent" format="1">
  <advance width="732"/>
  <unicode hex="0025"/>
  <outline>
    <contour>
      <point x="298" y="494" type="curve" smooth="yes"/>
      <point x="298" y="352"/>
      <point x="251" y="275"/>
      <point x="159" y="275" type="curve" smooth="yes"/>
      <point x="67" y="275"/>
      <point x="22" y="350"/>
      <point x="22" y="492" type="curve" smooth="yes"/>
      <point x="22" y="634"/>
      <point x="69" y="711"/>
      <point x="161" y="711" type="curve" smooth="yes"/>
      <point x="253" y="711"/>
      <point x="298" y="636"/>
    </contour>
    <contour>
      <point x="579" y="700" type="line"/>
      <point x="272" y="0" type="line"/>
      <point x="153" y="0" type="line"/>
      <point x="460" y="700" type="line"/>
    </contour>
    <contour>
      <point x="710" y="208" type="curve" smooth="yes"/>
      <point x="710" y="66"/>
      <point x="663" y="-11"/>
      <point x="571" y="-11" type="curve" smooth="yes"/>
      <point x="479" y="-11"/>
      <point x="434" y="64"/>
      <point x="434" y="206" type="curve" smooth="yes"/>
      <point x="434" y="348"/>
      <point x="481" y="425"/>
      <point x="573" y="425" type="curve" smooth="yes"/>
      <point x="665" y="425"/>
      <point x="710" y="350"/>
    </contour>
    <contour>
      <point x="181" y="492" type="curve" smooth="yes"/>
      <point x="181" y="585"/>
      <point x="178" y="609"/>
      <point x="160" y="609" type="curve" smooth="yes"/>
      <point x="142" y="609"/>
      <point x="139" y="587"/>
      <point x="139" y="494" type="curve" smooth="yes"/>
      <point x="139" y="401"/>
      <point x="143" y="377"/>
      <point x="161" y="377" type="curve" smooth="yes"/>
      <point x="179" y="377"/>
      <point x="181" y="399"/>
    </contour>
    <contour>
      <point x="593" y="206" type="curve" smooth="yes"/>
      <point x="593" y="299"/>
      <point x="590" y="323"/>
      <point x="572" y="323" type="curve" smooth="yes"/>
      <point x="554" y="323"/>
      <point x="551" y="301"/>
      <point x="551" y="208" type="curve" smooth="yes"/>
      <point x="551" y="115"/>
      <point x="555" y="91"/>
      <point x="573" y="91" type="curve" smooth="yes"/>
      <point x="591" y="91"/>
      <point x="593" y="113"/>
    </contour>
  </outline>
</glyph>
<glyph name="ampersand" format="1">
  <advance width="383"/>
  <unicode hex="0026"/>
  <outline>
    <contour>
      <point x="382" y="0" type="line"/>
      <point x="259" y="0" type="line"/>
      <point x="242" y="41" type="line"/>
      <point x="213" y="4"/>
      <point x="181" y="-11"/>
      <point x="146" y="-11" type="curve" smooth="yes"/>
      <point x="46" y="-11"/>
      <point x="14" y="53"/>
      <point x="14" y="170" type="curve" smooth="yes"/>
      <point x="14" y="248"/>
      <point x="39" y="320"/>
      <point x="94" y="394" type="curve"/>
      <point x="70" y="452" type="line" smooth="yes"/>
      <point x="52" y="495"/>
      <point x="41" y="527"/>
      <point x="41" y="566" type="curve" smooth="yes"/>
      <point x="41" y="656"/>
      <point x="99" y="711"/>
      <point x="184" y="711" type="curve" smooth="yes"/>
      <point x="277" y="711"/>
      <point x="308" y="663"/>
      <point x="336" y="564" type="curve"/>
      <point x="224" y="526" type="line"/>
      <point x="206" y="582"/>
      <point x="198" y="598"/>
      <point x="183" y="598" type="curve" smooth="yes"/>
      <point x="168" y="598"/>
      <point x="161" y="590"/>
      <point x="161" y="570" type="curve" smooth="yes"/>
      <point x="161" y="545"/>
      <point x="168" y="519"/>
      <point x="182" y="486" type="curve" smooth="yes"/>
      <point x="241" y="343" type="line"/>
      <point x="245" y="364"/>
      <point x="250" y="388"/>
      <point x="255" y="414" type="curve"/>
      <point x="360" y="391" type="line"/>
      <point x="344" y="305"/>
      <point x="327" y="235"/>
      <point x="308" y="179" type="curve"/>
    </contour>
    <contour>
      <point x="195" y="152" type="curve"/>
      <point x="147" y="276" type="line"/>
      <point x="138" y="247"/>
      <point x="133" y="210"/>
      <point x="133" y="179" type="curve" smooth="yes"/>
      <point x="133" y="120"/>
      <point x="143" y="100"/>
      <point x="157" y="100" type="curve" smooth="yes"/>
      <point x="170" y="100"/>
      <point x="180" y="107"/>
    </contour>
  </outline>
</glyph>
<glyph name="quotesingle" format="1">
  <advance width="221"/>
  <unicode hex="0027"/>
  <outline>
    <contour>
      <point x="187" y="700" type="line"/>
      <point x="159" y="373" type="line"/>
      <point x="62" y="373" type="line"/>
      <point x="34" y="700" type="line"/>
    </contour>
  </outline>
</glyph>
<glyph name="parenleft" format="1">
  <advance width="250"/>
  <unicode hex="0028"/>
  <outline>
    <contour>
      <point x="243" y="-59" type="curve"/>
      <point x="154" y="-110" type="line"/>
      <point x="71" y="4"/>
      <point x="19" y="125"/>
      <point x="19" y="302" type="curve" smooth="yes"/>
      <point x="19" y="482"/>
      <point x="71" y="602"/>
      <point x="154" y="716" type="curve"/>
      <point x="243" y="665" type="line"/>
      <point x="185" y="565"/>
      <point x="161" y="434"/>
      <point x="161" y="305" type="curve" smooth="yes"/>
      <point x="161" y="172"/>
      <point x="185" y="40"/>
    </contour>
  </outline>
</glyph>
<glyph name="parenright" format="1">
  <advance width="250"/>
  <unicode hex="0029"/>
  <outline>
    <contour>
      <point x="231" y="304" type="curve" smooth="yes"/>
      <point x="231" y="124"/>
      <point x="179" y="4"/>
      <point x="96" y="-110" type="curve"/>
      <point x="7" y="-59" type="line"/>
      <point x="65" y="41"/>
      <point x="89" y="172"/>
      <point x="89" y="301" type="curve" smooth="yes"/>
      <point x="89" y="434"/>
      <point x="65" y="566"/>
      <point x="7" y="665" type="curve"/>
      <point x="96" y="716" type="line"/>
      <point x="179" y="602"/>
      <point x="231" y="481"/>
    </contour>
  </outline>
</glyph>
<glyph name="asterisk" format="1">
  <advance width="390"/>
  <unicode hex="002A"/>
  <outline>
    <contour>
      <point x="372" y="487" type="line"/>
      <point x="317" y="395" type="line"/>
      <point x="222" y="483" type="line"/>
      <point x="249" y="356" type="line"/>
      <point x="141" y="356" type="line"/>
      <point x="168" y="483" type="line"/>
      <point x="73" y="395" type="line"/>
      <point x="18" y="487" type="line"/>
      <point x="142" y="528" type="line"/>
      <point x="18" y="569" type="line"/>
      <point x="73" y="661" type="line"/>
      <point x="168" y="573" type="line"/>
      <point x="141" y="700" type="line"/>
      <point x="249" y="700" type="line"/>
      <point x="222" y="573" type="line"/>
      <point x="317" y="661" type="line"/>
      <point x="372" y="569" type="line"/>
      <point x="248" y="528" type="line"/>
    </contour>
  </outline>
</glyph>
<glyph name="plus" format="1">
  <advance width="379"/>
  <unicode hex="002B"/>
  <outline>
    <contour>
      <point x="358" y="285" type="line"/>
      <point x="252" y="285" type="line"/>
      <point x="252" y="162" type="line"/>
      <point x="127" y="162" type="line"/>
      <point x="127" y="285" type="line"/>
      <point x="21" y="285" type="line"/>
      <point x="21" y="403" type="line"/>
      <point x="127" y="403" type="line"/>
      <point x="127" y="526" type="line"/>
      <point x="252" y="526" type="line"/>
      <point x="252" y="403" type="line"/>
      <point x="358" y="403" type="line"/>
    </contour>
  </outline>
</glyph>
<glyph name="comma" format="1">
  <advance width="208"/>
  <unicode hex="002C"/>
  <outline>
    <contour>
      <point x="178" y="137" type="line"/>
      <point x="105" y="-111" type="line"/>
      <point x="30" y="-111" type="line"/>
      <point x="45" y="137" type="line"/>
    </contour>
  </outline>
</glyph>
<glyph name="hyphen" format="1">
  <advance width="258"/>
  <unicode hex="002D"/>
  <unicode hex="2010"/>
  <unicode hex="2011"/>
  <outline>
    <contour>
      <point x="228" y="302" type="line"/>
      <point x="29" y="302" type="line"/>
      <point x="29" y="430" type="line"/>
      <point x="228" y="430" type="line"/>
    </contour>
  </outline>
</glyph>
<glyph name="period" format="1">
  <advance width="208"/>
  <unicode hex="002E"/>
  <outline>
    <contour>
      <point x="182" y="66" type="curve" smooth="yes"/>
      <point x="182" y="21"/>
      <point x="151" y="-11"/>
      <point x="105" y="-11" type="curve" smooth="yes"/>
      <point x="59" y="-11"/>
      <point x="27" y="21"/>
      <point x="27" y="66" type="curve" smooth="yes"/>
      <point x="27" y="112"/>
      <point x="59" y="144"/>
      <point x="105" y="144" type="curve" smooth="yes"/>
      <point x="151" y="144"/>
      <point x="182" y="112"/>
    </contour>
  </outline>
</glyph>
<glyph name="slash" format="1">
  <advance width="280"/>
  <unicode hex="002F"/>
  <outline>
    <contour>
      <point x="294" y="790" type="line"/>
      <point x="114" y="-90" type="line"/>
      <point x="-14" y="-90" type="line"/>
      <point x="166" y="790" type="line"/>
    </contour>
  </outline>
</glyph>
<glyph name="zero" format="1">
  <advance width="379"/>
  <unicode hex="0030"/>
  <outline>
    <contour>
      <point x="358" y="351" type="curve" smooth="yes"/>
      <point x="358" y="101"/>
      <point x="312" y="-11"/>
      <point x="188" y="-11" type="curve" smooth="yes"/>
      <point x="65" y="-11"/>
      <point x="21" y="99"/>
      <point x="21" y="349" type="curve" smooth="yes"/>
      <point x="21" y="599"/>
      <point x="67" y="711"/>
      <point x="190" y="711" type="curve" smooth="yes"/>
      <point x="313" y="711"/>
      <point x="358" y="599"/>
    </contour>
    <contour>
      <point x="221" y="349" type="curve" smooth="yes"/>
      <point x="221" y="563"/>
      <point x="214" y="592"/>
      <point x="189" y="592" type="curve" smooth="yes"/>
      <point x="164" y="592"/>
      <point x="158" y="564"/>
      <point x="158" y="351" type="curve" smooth="yes"/>
      <point x="158" y="136"/>
      <point x="164" y="108"/>
      <point x="189" y="108" type="curve" smooth="yes"/>
      <point x="215" y="108"/>
      <point x="221" y="135"/>
    </contour>
  </outline>
</glyph>
<glyph name="one" format="1">
  <advance width="245"/>
  <unicode hex="0031"/>
  <outline>
    <contour>
      <point x="210" y="0" type="line"/>
      <point x="73" y="0" type="line"/>
      <point x="73" y="544" type="line"/>
      <point x="7" y="544" type="line"/>
      <point x="7" y="626" type="line"/>
      <point x="61" y="633"/>
      <point x="87" y="653"/>
      <point x="97" y="700" type="curve"/>
      <point x="210" y="700" type="line"/>
    </contour>
  </outline>
</glyph>
<glyph name="two" format="1">
  <advance width="361"/>
  <unicode hex="0032"/>
  <outline>
    <contour>
      <point x="337" y="0" type="line"/>
      <point x="19" y="0" type="line"/>
      <point x="26" y="207"/>
      <point x="56" y="277"/>
      <point x="146" y="391" type="curve" smooth="yes"/>
      <point x="186" y="441"/>
      <point x="205" y="488"/>
      <point x="205" y="538" type="curve" smooth="yes"/>
      <point x="205" y="578"/>
      <point x="199" y="593"/>
      <point x="181" y="593" type="curve" smooth="yes"/>
      <point x="160" y="593"/>
      <point x="153" y="578"/>
      <point x="145" y="508" type="curve"/>
      <point x="21" y="526" type="line"/>
      <point x="37" y="644"/>
      <point x="77" y="711"/>
      <point x="188" y="711" type="curve" smooth="yes"/>
      <point x="289" y="711"/>
      <point x="336" y="639"/>
      <point x="336" y="541" type="curve" smooth="yes"/>
      <point x="336" y="472"/>
      <point x="313" y="409"/>
      <point x="257" y="336" type="curve" smooth="yes"/>
      <point x="187" y="245"/>
      <point x="164" y="192"/>
      <point x="161" y="121" type="curve"/>
      <point x="337" y="121" type="line"/>
    </contour>
  </outline>
</glyph>
<glyph name="three" format="1">
  <advance width="364"/>
  <unicode hex="0033"/>
  <outline>
    <contour>
      <point x="341" y="206" type="curve" smooth="yes"/>
      <point x="341" y="71"/>
      <point x="286" y="-11"/>
      <point x="175" y="-11" type="curve" smooth="yes"/>
      <point x="76" y="-11"/>
      <point x="27" y="56"/>
      <point x="15" y="180" type="curve"/>
      <point x="142" y="196" type="line"/>
      <point x="148" y="125"/>
      <point x="154" y="105"/>
      <point x="175" y="105" type="curve" smooth="yes"/>
      <point x="200" y="105"/>
      <point x="209" y="124"/>
      <point x="209" y="198" type="curve" smooth="yes"/>
      <point x="209" y="295"/>
      <point x="196" y="312"/>
      <point x="139" y="312" type="curve" smooth="yes"/>
      <point x="112" y="312" type="line"/>
      <point x="112" y="428" type="line"/>
      <point x="142" y="428" type="line" smooth="yes"/>
      <point x="188" y="428"/>
      <point x="204" y="452"/>
      <point x="203" y="545" type="curve" smooth="yes"/>
      <point x="203" y="582"/>
      <point x="197" y="595"/>
      <point x="175" y="595" type="curve" smooth="yes"/>
      <point x="156" y="595"/>
      <point x="150" y="580"/>
      <point x="141" y="510" type="curve"/>
      <point x="18" y="528" type="line"/>
      <point x="32" y="641"/>
      <point x="75" y="711"/>
      <point x="179" y="711" type="curve" smooth="yes"/>
      <point x="279" y="711"/>
      <point x="335" y="646"/>
      <point x="335" y="548" type="curve" smooth="yes"/>
      <point x="335" y="444"/>
      <point x="307" y="395"/>
      <point x="255" y="377" type="curve"/>
      <point x="304" y="360"/>
      <point x="341" y="334"/>
    </contour>
  </outline>
</glyph>
<glyph name="four" format="1">
  <advance width="357"/>
  <unicode hex="0034"/>
  <outline>
    <contour>
      <point x="348" y="149" type="line"/>
      <point x="314" y="149" type="line"/>
      <point x="314" y="0" type="line"/>
      <point x="200" y="0" type="line"/>
      <point x="200" y="151" type="line"/>
      <point x="8" y="151" type="line"/>
      <point x="8" y="240" type="line"/>
      <point x="192" y="700" type="line"/>
      <point x="314" y="700" type="line"/>
      <point x="314" y="257" type="line"/>
      <point x="348" y="257" type="line"/>
    </contour>
    <contour>
      <point x="207" y="494" type="curve"/>
      <point x="197" y="452"/>
      <point x="188" y="420"/>
      <point x="173" y="376" type="curve" smooth="yes"/>
      <point x="161" y="341" type="line" smooth="yes"/>
      <point x="148" y="303"/>
      <point x="138" y="276"/>
      <point x="129" y="257" type="curve"/>
      <point x="145" y="257"/>
      <point x="159" y="257"/>
      <point x="177" y="257" type="curve" smooth="yes"/>
      <point x="203" y="257" type="line"/>
      <point x="203" y="368" type="line" smooth="yes"/>
      <point x="203" y="407"/>
      <point x="204" y="452"/>
    </contour>
  </outline>
</glyph>
<glyph name="five" format="1">
  <advance width="369"/>
  <unicode hex="0035"/>
  <outline>
    <contour>
      <point x="345" y="238" type="curve" smooth="yes"/>
      <point x="345" y="75"/>
      <point x="298" y="-11"/>
      <point x="179" y="-11" type="curve" smooth="yes"/>
      <point x="82" y="-11"/>
      <point x="33" y="54"/>
      <point x="20" y="178" type="curve"/>
      <point x="148" y="194" type="line"/>
      <point x="156" y="126"/>
      <point x="161" y="105"/>
      <point x="182" y="105" type="curve" smooth="yes"/>
      <point x="211" y="105"/>
      <point x="214" y="137"/>
      <point x="214" y="235" type="curve" smooth="yes"/>
      <point x="214" y="340"/>
      <point x="205" y="368"/>
      <point x="177" y="368" type="curve" smooth="yes"/>
      <point x="155" y="368"/>
      <point x="144" y="354"/>
      <point x="131" y="321" type="curve"/>
      <point x="25" y="336" type="line"/>
      <point x="39" y="700" type="line"/>
      <point x="330" y="700" type="line"/>
      <point x="330" y="581" type="line"/>
      <point x="153" y="581" type="line"/>
      <point x="146" y="460" type="line"/>
      <point x="160" y="475"/>
      <point x="177" y="484"/>
      <point x="213" y="484" type="curve" smooth="yes"/>
      <point x="308" y="484"/>
      <point x="345" y="405"/>
    </contour>
  </outline>
</glyph>
<glyph name="six" format="1">
  <advance width="364"/>
  <unicode hex="0036"/>
  <outline>
    <contour>
      <point x="346" y="220" type="curve" smooth="yes"/>
      <point x="346" y="67"/>
      <point x="282" y="-11"/>
      <point x="182" y="-11" type="curve" smooth="yes"/>
      <point x="83" y="-11"/>
      <point x="23" y="71"/>
      <point x="23" y="229" type="curve" smooth="yes"/>
      <point x="23" y="491"/>
      <point x="115" y="631"/>
      <point x="224" y="716" type="curve"/>
      <point x="304" y="621" type="line"/>
      <point x="221" y="561"/>
      <point x="171" y="486"/>
      <point x="153" y="403" type="curve"/>
      <point x="170" y="426"/>
      <point x="192" y="440"/>
      <point x="222" y="440" type="curve" smooth="yes"/>
      <point x="300" y="440"/>
      <point x="346" y="371"/>
    </contour>
    <contour>
      <point x="214" y="210" type="curve" smooth="yes"/>
      <point x="214" y="298"/>
      <point x="206" y="326"/>
      <point x="183" y="326" type="curve" smooth="yes"/>
      <point x="161" y="326"/>
      <point x="153" y="299"/>
      <point x="153" y="209" type="curve" smooth="yes"/>
      <point x="153" y="128"/>
      <point x="164" y="103"/>
      <point x="183" y="103" type="curve" smooth="yes"/>
      <point x="203" y="103"/>
      <point x="214" y="127"/>
    </contour>
  </outline>
</glyph>
<glyph name="seven" format="1">
  <advance width="350"/>
  <unicode hex="0037"/>
  <outline>
    <contour>
      <point x="332" y="582" type="line"/>
      <point x="215" y="390"/>
      <point x="204" y="260"/>
      <point x="204" y="0" type="curve"/>
      <point x="74" y="0" type="line"/>
      <point x="74" y="191"/>
      <point x="87" y="388"/>
      <point x="204" y="579" type="curve"/>
      <point x="11" y="579" type="line"/>
      <point x="11" y="700" type="line"/>
      <point x="332" y="700" type="line"/>
    </contour>
  </outline>
</glyph>
<glyph name="eight" format="1">
  <advance width="364"/>
  <unicode hex="0038"/>
  <outline>
    <contour>
      <point x="345" y="209" type="curve" smooth="yes"/>
      <point x="345" y="61"/>
      <point x="283" y="-11"/>
      <point x="180" y="-11" type="curve" smooth="yes"/>
      <point x="83" y="-11"/>
      <point x="19" y="64"/>
      <point x="19" y="208" type="curve" smooth="yes"/>
      <point x="19" y="302"/>
      <point x="45" y="350"/>
      <point x="84" y="383" type="curve"/>
      <point x="51" y="410"/>
      <point x="26" y="455"/>
      <point x="26" y="526" type="curve" smooth="yes"/>
      <point x="26" y="627"/>
      <point x="83" y="711"/>
      <point x="182" y="711" type="curve" smooth="yes"/>
      <point x="289" y="711"/>
      <point x="339" y="623"/>
      <point x="339" y="527" type="curve" smooth="yes"/>
      <point x="339" y="456"/>
      <point x="314" y="414"/>
      <point x="280" y="385" type="curve"/>
      <point x="320" y="353"/>
      <point x="345" y="302"/>
    </contour>
    <contour>
      <point x="212" y="520" type="curve" smooth="yes"/>
      <point x="212" y="582"/>
      <point x="199" y="599"/>
      <point x="182" y="599" type="curve" smooth="yes"/>
      <point x="165" y="599"/>
      <point x="152" y="585"/>
      <point x="152" y="523" type="curve" smooth="yes"/>
      <point x="152" y="473"/>
      <point x="164" y="443"/>
      <point x="182" y="443" type="curve" smooth="yes"/>
      <point x="200" y="443"/>
      <point x="212" y="471"/>
    </contour>
    <contour>
      <point x="215" y="212" type="curve" smooth="yes"/>
      <point x="215" y="296"/>
      <point x="201" y="320"/>
      <point x="181" y="320" type="curve" smooth="yes"/>
      <point x="162" y="320"/>
      <point x="150" y="295"/>
      <point x="150" y="214" type="curve" smooth="yes"/>
      <point x="150" y="127"/>
      <point x="162" y="106"/>
      <point x="183" y="106" type="curve" smooth="yes"/>
      <point x="202" y="106"/>
      <point x="215" y="125"/>
    </contour>
  </outline>
</glyph>
<glyph name="nine" format="1">
  <advance width="364"/>
  <unicode hex="0039"/>
  <outline>
    <contour>
      <point x="341" y="471" type="curve" smooth="yes"/>
      <point x="341" y="209"/>
      <point x="249" y="69"/>
      <point x="140" y="-16" type="curve"/>
      <point x="60" y="79" type="line"/>
      <point x="143" y="139"/>
      <point x="193" y="214"/>
      <point x="211" y="297" type="curve"/>
      <point x="194" y="274"/>
      <point x="172" y="260"/>
      <point x="142" y="260" type="curve" smooth="yes"/>
      <point x="64" y="260"/>
      <point x="18" y="329"/>
      <point x="18" y="480" type="curve" smooth="yes"/>
      <point x="18" y="633"/>
      <point x="82" y="711"/>
      <point x="182" y="711" type="curve" smooth="yes"/>
      <point x="281" y="711"/>
      <point x="341" y="629"/>
    </contour>
    <contour>
      <point x="211" y="491" type="curve" smooth="yes"/>
      <point x="211" y="572"/>
      <point x="200" y="597"/>
      <point x="181" y="597" type="curve" smooth="yes"/>
      <point x="161" y="597"/>
      <point x="150" y="573"/>
      <point x="150" y="490" type="curve" smooth="yes"/>
      <point x="150" y="402"/>
      <point x="158" y="374"/>
      <point x="181" y="374" type="curve" smooth="yes"/>
      <point x="203" y="374"/>
      <point x="211" y="401"/>
    </contour>
  </outline>
</glyph>
<glyph name="colon" format="1">
  <advance width="208"/>
  <unicode hex="003A"/>
  <outline>
    <contour>
      <point x="182" y="459" type="curve" smooth="yes"/>
      <point x="182" y="413"/>
      <point x="151" y="381"/>
      <point x="105" y="381" type="curve" smooth="yes"/>
      <point x="59" y="381"/>
      <point x="27" y="413"/>
      <point x="27" y="459" type="curve" smooth="yes"/>
      <point x="27" y="505"/>
      <point x="59" y="536"/>
      <point x="105" y="536" type="curve" smooth="yes"/>
      <point x="151" y="536"/>
      <point x="182" y="505"/>
    </contour>
    <contour>
      <point x="182" y="66" type="curve" smooth="yes"/>
      <point x="182" y="20"/>
      <point x="151" y="-11"/>
      <point x="105" y="-11" type="curve" smooth="yes"/>
      <point x="59" y="-11"/>
      <point x="27" y="20"/>
      <point x="27" y="66" type="curve" smooth="yes"/>
      <point x="27" y="112"/>
      <point x="59" y="144"/>
      <point x="105" y="144" type="curve" smooth="yes"/>
      <point x="151" y="144"/>
      <point x="182" y="112"/>
    </contour>
  </outline>
</glyph>
<glyph name="semicolon" format="1">
  <advance width="208"/>
  <unicode hex="003B"/>
  <outline>
    <contour>
      <point x="182" y="459" type="curve" smooth="yes"/>
      <point x="182" y="413"/>
      <point x="151" y="381"/>
      <point x="105" y="381" type="curve" smooth="yes"/>
      <point x="59" y="381"/>
      <point x="27" y="413"/>
      <point x="27" y="459" type="curve" smooth="yes"/>
      <point x="27" y="504"/>
      <point x="59" y="536"/>
      <point x="105" y="536" type="curve" smooth="yes"/>
      <point x="151" y="536"/>
      <point x="182" y="504"/>
    </contour>
    <contour>
      <point x="171" y="137" type="line"/>
      <point x="98" y="-111" type="line"/>
      <point x="24" y="-111" type="line"/>
      <point x="39" y="137" type="line"/>
    </contour>
  </outline>
</glyph>
<glyph name="less" format="1">
  <advance width="270"/>
  <unicode hex="003C"/>
  <outline>
    <contour>
      <point x="239" y="70" type="line"/>
      <point x="23" y="283" type="line"/>
      <point x="23" y="405" type="line"/>
      <point x="239" y="618" type="line"/>
      <point x="239" y="447" type="line"/>
      <point x="125" y="345" type="line"/>
      <point x="239" y="242" type="line"/>
    </contour>
  </outline>
</glyph>
<glyph name="equal" format="1">
  <advance width="405"/>
  <unicode hex="003D"/>
  <outline>
    <contour>
      <point x="363" y="381" type="line"/>
      <point x="42" y="381" type="line"/>
      <point x="42" y="506" type="line"/>
      <point x="363" y="506" type="line"/>
    </contour>
    <contour>
      <point x="363" y="182" type="line"/>
      <point x="42" y="182" type="line"/>
      <point x="42" y="307" type="line"/>
      <point x="363" y="307" type="line"/>
    </contour>
  </outline>
</glyph>
<glyph name="greater" format="1">
  <advance width="270"/>
  <unicode hex="003E"/>
  <outline>
    <contour>
      <point x="247" y="283" type="line"/>
      <point x="31" y="70" type="line"/>
      <point x="31" y="241" type="line"/>
      <point x="145" y="343" type="line"/>
      <point x="31" y="446" type="line"/>
      <point x="31" y="618" type="line"/>
      <point x="247" y="405" type="line"/>
    </contour>
  </outline>
</glyph>
<glyph name="question" format="1">
  <advance width="336"/>
  <unicode hex="003F"/>
  <outline>
    <contour>
      <point x="324" y="540" type="curve" smooth="yes"/>
      <point x="324" y="467"/>
      <point x="297" y="409"/>
      <point x="260" y="358" type="curve" smooth="yes"/>
      <point x="215" y="296"/>
      <point x="207" y="267"/>
      <point x="207" y="187" type="curve"/>
      <point x="90" y="187" type="line"/>
      <point x="90" y="304"/>
      <point x="104" y="349"/>
      <point x="152" y="415" type="curve" smooth="yes"/>
      <point x="180" y="454"/>
      <point x="198" y="497"/>
      <point x="198" y="539" type="curve" smooth="yes"/>
      <point x="198" y="577"/>
      <point x="192" y="593"/>
      <point x="175" y="593" type="curve" smooth="yes"/>
      <point x="150" y="593"/>
      <point x="146" y="573"/>
      <point x="138" y="508" type="curve"/>
      <point x="9" y="526" type="line"/>
      <point x="25" y="645"/>
      <point x="66" y="711"/>
      <point x="176" y="711" type="curve" smooth="yes"/>
      <point x="276" y="711"/>
      <point x="324" y="641"/>
    </contour>
    <contour>
      <point x="223" y="64" type="curve" smooth="yes"/>
      <point x="223" y="20"/>
      <point x="193" y="-11"/>
      <point x="148" y="-11" type="curve" smooth="yes"/>
      <point x="103" y="-11"/>
      <point x="72" y="20"/>
      <point x="72" y="64" type="curve" smooth="yes"/>
      <point x="72" y="109"/>
      <point x="103" y="140"/>
      <point x="148" y="140" type="curve" smooth="yes"/>
      <point x="193" y="140"/>
      <point x="223" y="109"/>
    </contour>
  </outline>
</glyph>
<glyph name="at" format="1">
  <advance width="483"/>
  <unicode hex="0040"/>
  <outline>
    <contour>
      <point x="461" y="360" type="curve" smooth="yes"/>
      <point x="461" y="200"/>
      <point x="426" y="154"/>
      <point x="367" y="154" type="curve" smooth="yes"/>
      <point x="326" y="154"/>
      <point x="301" y="172"/>
      <point x="285" y="193" type="curve"/>
      <point x="262" y="166"/>
      <point x="239" y="152"/>
      <point x="213" y="152" type="curve" smooth="yes"/>
      <point x="161" y="152"/>
      <point x="137" y="198"/>
      <point x="137" y="283" type="curve" smooth="yes"/>
      <point x="137" y="370"/>
      <point x="163" y="416"/>
      <point x="211" y="416" type="curve" smooth="yes"/>
      <point x="233" y="416"/>
      <point x="245" y="412"/>
      <point x="261" y="399" type="curve"/>
      <point x="261" y="443" type="line" smooth="yes"/>
      <point x="261" y="476"/>
      <point x="256" y="487"/>
      <point x="231" y="487" type="curve" smooth="yes"/>
      <point x="213" y="487"/>
      <point x="198" y="482"/>
      <point x="176" y="465" type="curve"/>
      <point x="148" y="523" type="line"/>
      <point x="174" y="545"/>
      <point x="210" y="562"/>
      <point x="245" y="562" type="curve" smooth="yes"/>
      <point x="303" y="562"/>
      <point x="335" y="531"/>
      <point x="335" y="458" type="curve" smooth="yes"/>
      <point x="335" y="269" type="line" smooth="yes"/>
      <point x="335" y="227"/>
      <point x="342" y="210"/>
      <point x="363" y="210" type="curve" smooth="yes"/>
      <point x="387" y="210"/>
      <point x="401" y="232"/>
      <point x="401" y="361" type="curve" smooth="yes"/>
      <point x="401" y="556"/>
      <point x="340" y="655"/>
      <point x="242" y="655" type="curve" smooth="yes"/>
      <point x="135" y="655"/>
      <point x="82" y="548"/>
      <point x="82" y="351" type="curve" smooth="yes"/>
      <point x="82" y="153"/>
      <point x="134" y="45"/>
      <point x="245" y="45" type="curve" smooth="yes"/>
      <point x="276" y="45"/>
      <point x="305" y="57"/>
      <point x="326" y="73" type="curve"/>
      <point x="353" y="26" type="line"/>
      <point x="325" y="4"/>
      <point x="286" y="-11"/>
      <point x="242" y="-11" type="curve" smooth="yes"/>
      <point x="101" y="-11"/>
      <point x="22" y="124"/>
      <point x="22" y="350" type="curve" smooth="yes"/>
      <point x="22" y="576"/>
      <point x="101" y="711"/>
      <point x="242" y="711" type="curve" smooth="yes"/>
      <point x="384" y="711"/>
      <point x="461" y="568"/>
    </contour>
    <contour>
      <point x="261" y="239" type="curve"/>
      <point x="261" y="333" type="line"/>
      <point x="253" y="339"/>
      <point x="247" y="341"/>
      <point x="236" y="341" type="curve" smooth="yes"/>
      <point x="218" y="341"/>
      <point x="211" y="333"/>
      <point x="211" y="284" type="curve" smooth="yes"/>
      <point x="211" y="239"/>
      <point x="219" y="227"/>
      <point x="237" y="227" type="curve" smooth="yes"/>
      <point x="249" y="227"/>
      <point x="255" y="233"/>
    </contour>
  </outline>
</glyph>
<glyph name="A" format="1">
  <advance width="377"/>
  <unicode hex="0041"/>
  <outline>
    <contour>
      <point x="370" y="0" type="line"/>
      <point x="236" y="0" type="line"/>
      <point x="222" y="136" type="line"/>
      <point x="156" y="136" type="line"/>
      <point x="143" y="0" type="line"/>
      <point x="7" y="0" type="line"/>
      <point x="115" y="700" type="line"/>
      <point x="263" y="700" type="line"/>
    </contour>
    <contour>
      <point x="211" y="255" type="line"/>
      <point x="207" y="301" type="line" smooth="yes"/>
      <point x="202" y="364"/>
      <point x="192" y="463"/>
      <point x="187" y="543" type="curve"/>
      <point x="183" y="463"/>
      <point x="174" y="364"/>
      <point x="168" y="300" type="curve" smooth="yes"/>
      <point x="164" y="255" type="line"/>
    </contour>
  </outline>
</glyph>
<glyph name="B" format="1">
  <advance width="378"/>
  <unicode hex="0042"/>
  <outline>
    <contour>
      <point x="361" y="205" type="curve" smooth="yes"/>
      <point x="361" y="76"/>
      <point x="307" y="0"/>
      <point x="188" y="0" type="curve" smooth="yes"/>
      <point x="32" y="0" type="line"/>
      <point x="32" y="700" type="line"/>
      <point x="193" y="700" type="line" smooth="yes"/>
      <point x="296" y="700"/>
      <point x="355" y="641"/>
      <point x="355" y="513" type="curve" smooth="yes"/>
      <point x="355" y="436"/>
      <point x="327" y="390"/>
      <point x="277" y="364" type="curve"/>
      <point x="328" y="339"/>
      <point x="361" y="295"/>
    </contour>
    <contour>
      <point x="219" y="507" type="curve" smooth="yes"/>
      <point x="219" y="573"/>
      <point x="210" y="593"/>
      <point x="178" y="593" type="curve" smooth="yes"/>
      <point x="166" y="593" type="line"/>
      <point x="166" y="417" type="line"/>
      <point x="181" y="417" type="line" smooth="yes"/>
      <point x="208" y="417"/>
      <point x="219" y="443"/>
    </contour>
    <contour>
      <point x="223" y="203" type="curve" smooth="yes"/>
      <point x="223" y="280"/>
      <point x="213" y="309"/>
      <point x="178" y="309" type="curve" smooth="yes"/>
      <point x="166" y="309" type="line"/>
      <point x="166" y="107" type="line"/>
      <point x="182" y="107" type="line" smooth="yes"/>
      <point x="212" y="107"/>
      <point x="223" y="132"/>
    </contour>
  </outline>
</glyph>
<glyph name="C" format="1">
  <advance width="387"/>
  <unicode hex="0043"/>
  <outline>
    <contour>
      <point x="365" y="218" type="line"/>
      <point x="349" y="57"/>
      <point x="309" y="-11"/>
      <point x="198" y="-11" type="curve" smooth="yes"/>
      <point x="77" y="-11"/>
      <point x="22" y="85"/>
      <point x="22" y="348" type="curve" smooth="yes"/>
      <point x="22" y="609"/>
      <point x="76" y="711"/>
      <point x="200" y="711" type="curve" smooth="yes"/>
      <point x="323" y="711"/>
      <point x="356" y="617"/>
      <point x="363" y="481" type="curve"/>
      <point x="227" y="461" type="line"/>
      <point x="223" y="562"/>
      <point x="222" y="592"/>
      <point x="199" y="592" type="curve" smooth="yes"/>
      <point x="172" y="592"/>
      <point x="166" y="559"/>
      <point x="166" y="352" type="curve" smooth="yes"/>
      <point x="166" y="137"/>
      <point x="173" y="108"/>
      <point x="201" y="108" type="curve" smooth="yes"/>
      <point x="219" y="108"/>
      <point x="226" y="125"/>
      <point x="231" y="238" type="curve"/>
    </contour>
  </outline>
</glyph>
<glyph name="D" format="1">
  <advance width="395"/>
  <unicode hex="0044"/>
  <outline>
    <contour>
      <point x="373" y="355" type="curve" smooth="yes"/>
      <point x="373" y="115"/>
      <point x="313" y="0"/>
      <point x="181" y="0" type="curve" smooth="yes"/>
      <point x="32" y="0" type="line"/>
      <point x="32" y="700" type="line"/>
      <point x="193" y="700" type="line" smooth="yes"/>
      <point x="334" y="700"/>
      <point x="373" y="572"/>
    </contour>
    <contour>
      <point x="229" y="353" type="curve" smooth="yes"/>
      <point x="229" y="565"/>
      <point x="216" y="588"/>
      <point x="181" y="588" type="curve" smooth="yes"/>
      <point x="169" y="588" type="line"/>
      <point x="169" y="111" type="line"/>
      <point x="179" y="111" type="line" smooth="yes"/>
      <point x="214" y="111"/>
      <point x="229" y="139"/>
    </contour>
  </outline>
</glyph>
<glyph name="E" format="1">
  <advance width="340"/>
  <unicode hex="0045"/>
  <outline>
    <contour>
      <point x="322" y="0" type="line"/>
      <point x="32" y="0" type="line"/>
      <point x="32" y="700" type="line"/>
      <point x="316" y="700" type="line"/>
      <point x="316" y="576" type="line"/>
      <point x="172" y="576" type="line"/>
      <point x="172" y="431" type="line"/>
      <point x="282" y="431" type="line"/>
      <point x="282" y="307" type="line"/>
      <point x="172" y="307" type="line"/>
      <point x="172" y="124" type="line"/>
      <point x="322" y="124" type="line"/>
    </contour>
  </outline>
</glyph>
<glyph name="F" format="1">
  <advance width="335"/>
  <unicode hex="0046"/>
  <outline>
    <contour>
      <point x="317" y="576" type="line"/>
      <point x="172" y="576" type="line"/>
      <point x="172" y="431" type="line"/>
      <point x="284" y="431" type="line"/>
      <point x="284" y="307" type="line"/>
      <point x="172" y="307" type="line"/>
      <point x="172" y="0" type="line"/>
      <point x="32" y="0" type="line"/>
      <point x="32" y="700" type="line"/>
      <point x="317" y="700" type="line"/>
    </contour>
  </outline>
</glyph>
<glyph name="G" format="1">
  <advance width="394"/>
  <unicode hex="0047"/>
  <outline>
    <contour>
      <point x="368" y="232" type="line" smooth="yes"/>
      <point x="368" y="91"/>
      <point x="322" y="-11"/>
      <point x="198" y="-11" type="curve" smooth="yes"/>
      <point x="73" y="-11"/>
      <point x="22" y="94"/>
      <point x="22" y="350" type="curve" smooth="yes"/>
      <point x="22" y="608"/>
      <point x="75" y="711"/>
      <point x="201" y="711" type="curve" smooth="yes"/>
      <point x="319" y="711"/>
      <point x="354" y="623"/>
      <point x="363" y="489" type="curve"/>
      <point x="227" y="465" type="line"/>
      <point x="223" y="568"/>
      <point x="221" y="592"/>
      <point x="199" y="592" type="curve" smooth="yes"/>
      <point x="172" y="592"/>
      <point x="166" y="560"/>
      <point x="166" y="350" type="curve" smooth="yes"/>
      <point x="166" y="144"/>
      <point x="171" y="108"/>
      <point x="202" y="108" type="curve" smooth="yes"/>
      <point x="228" y="108"/>
      <point x="234" y="130"/>
      <point x="234" y="197" type="curve" smooth="yes"/>
      <point x="234" y="254" type="line"/>
      <point x="198" y="254" type="line"/>
      <point x="198" y="366" type="line"/>
      <point x="368" y="366" type="line"/>
    </contour>
  </outline>
</glyph>
<glyph name="H" format="1">
  <advance width="406"/>
  <unicode hex="0048"/>
  <outline>
    <contour>
      <point x="376" y="0" type="line"/>
      <point x="236" y="0" type="line"/>
      <point x="236" y="309" type="line"/>
      <point x="172" y="309" type="line"/>
      <point x="172" y="0" type="line"/>
      <point x="32" y="0" type="line"/>
      <point x="32" y="700" type="line"/>
      <point x="172" y="700" type="line"/>
      <point x="172" y="433" type="line"/>
      <point x="236" y="433" type="line"/>
      <point x="236" y="700" type="line"/>
      <point x="376" y="700" type="line"/>
    </contour>
  </outline>
</glyph>
<glyph name="J" format="1">
  <advance width="372"/>
  <unicode hex="004A"/>
  <outline>
    <contour>
      <point x="342" y="195" type="line" smooth="yes"/>
      <point x="342" y="56"/>
      <point x="289" y="-11"/>
      <point x="173" y="-11" type="curve" smooth="yes"/>
      <point x="57" y="-11"/>
      <point x="14" y="69"/>
      <point x="8" y="184" type="curve"/>
      <point x="143" y="211" type="line"/>
      <point x="145" y="127"/>
      <point x="152" y="108"/>
      <point x="175" y="108" type="curve" smooth="yes"/>
      <point x="195" y="108"/>
      <point x="202" y="126"/>
      <point x="202" y="176" type="curve" smooth="yes"/>
      <point x="202" y="700" type="line"/>
      <point x="342" y="700" type="line"/>
    </contour>
  </outline>
</glyph>
<glyph name="K" format="1">
  <advance width="391"/>
  <unicode hex="004B"/>
  <outline>
    <contour>
      <point x="383" y="0" type="line"/>
      <point x="239" y="0" type="line"/>
      <point x="183" y="291" type="line"/>
      <point x="172" y="255" type="line"/>
      <point x="172" y="0" type="line"/>
      <point x="32" y="0" type="line"/>
      <point x="32" y="700" type="line"/>
      <point x="172" y="700" type="line"/>
      <point x="172" y="618" type="line" smooth="yes"/>
      <point x="172" y="549"/>
      <point x="171" y="494"/>
      <point x="169" y="439" type="curve"/>
      <point x="182" y="495"/>
      <point x="201" y="569"/>
      <point x="216" y="619" type="curve" smooth="yes"/>
      <point x="240" y="700" type="line"/>
      <point x="381" y="700" type="line"/>
      <point x="293" y="439" type="line"/>
    </contour>
  </outline>
</glyph>
<glyph name="L" format="1">
  <advance width="312"/>
  <unicode hex="004C"/>
  <outline>
    <contour>
      <point x="297" y="0" type="line"/>
      <point x="32" y="0" type="line"/>
      <point x="32" y="700" type="line"/>
      <point x="172" y="700" type="line"/>
      <point x="172" y="124" type="line"/>
      <point x="297" y="124" type="line"/>
    </contour>
  </outline>
</glyph>
<glyph name="M" format="1">
  <advance width="480"/>
  <unicode hex="004D"/>
  <outline>
    <contour>
      <point x="448" y="0" type="line"/>
      <point x="327" y="0" type="line"/>
      <point x="327" y="144" type="line" smooth="yes"/>
      <point x="327" y="225"/>
      <point x="329" y="298"/>
      <point x="332" y="362" type="curve"/>
      <point x="322" y="305"/>
      <point x="299" y="213"/>
      <point x="280" y="137" type="curve" smooth="yes"/>
      <point x="240" y="-21" type="line"/>
      <point x="200" y="137" type="line" smooth="yes"/>
      <point x="181" y="212"/>
      <point x="159" y="305"/>
      <point x="149" y="362" type="curve"/>
      <point x="151" y="301"/>
      <point x="154" y="224"/>
      <point x="154" y="144" type="curve" smooth="yes"/>
      <point x="154" y="0" type="line"/>
      <point x="32" y="0" type="line"/>
      <point x="32" y="700" type="line"/>
      <point x="158" y="700" type="line"/>
      <point x="195" y="543" type="line" smooth="yes"/>
      <point x="213" y="465"/>
      <point x="232" y="382"/>
      <point x="240" y="323" type="curve"/>
      <point x="248" y="382"/>
      <point x="268" y="467"/>
      <point x="286" y="544" type="curve" smooth="yes"/>
      <point x="322" y="700" type="line"/>
      <point x="448" y="700" type="line"/>
    </contour>
  </outline>
</glyph>
<glyph name="N" format="1">
  <advance width="408"/>
  <unicode hex="004E"/>
  <outline>
    <contour>
      <point x="376" y="0" type="line"/>
      <point x="266" y="0" type="line"/>
      <point x="216" y="161" type="line" smooth="yes"/>
      <point x="192" y="240"/>
      <point x="166" y="333"/>
      <point x="156" y="381" type="curve"/>
      <point x="158" y="333"/>
      <point x="160" y="247"/>
      <point x="160" y="172" type="curve" smooth="yes"/>
      <point x="160" y="0" type="line"/>
      <point x="32" y="0" type="line"/>
      <point x="32" y="700" type="line"/>
      <point x="153" y="700" type="line"/>
      <point x="187" y="597" type="line" smooth="yes"/>
      <point x="213" y="518"/>
      <point x="243" y="417"/>
      <point x="254" y="369" type="curve"/>
      <point x="251" y="415"/>
      <point x="248" y="516"/>
      <point x="248" y="587" type="curve" smooth="yes"/>
      <point x="248" y="700" type="line"/>
      <point x="376" y="700" type="line"/>
    </contour>
  </outline>
</glyph>
<glyph name="O" format="1">
  <advance width="399"/>
  <unicode hex="004F"/>
  <outline>
    <contour>
      <point x="377" y="351" type="curve" smooth="yes"/>
      <point x="377" y="91"/>
      <point x="323" y="-11"/>
      <point x="198" y="-11" type="curve" smooth="yes"/>
      <point x="74" y="-11"/>
      <point x="22" y="89"/>
      <point x="22" y="349" type="curve" smooth="yes"/>
      <point x="22" y="609"/>
      <point x="76" y="711"/>
      <point x="200" y="711" type="curve" smooth="yes"/>
      <point x="324" y="711"/>
      <point x="377" y="610"/>
    </contour>
    <contour>
      <point x="233" y="349" type="curve" smooth="yes"/>
      <point x="233" y="561"/>
      <point x="226" y="592"/>
      <point x="199" y="592" type="curve" smooth="yes"/>
      <point x="172" y="592"/>
      <point x="166" y="563"/>
      <point x="166" y="351" type="curve" smooth="yes"/>
      <point x="166" y="139"/>
      <point x="173" y="108"/>
      <point x="199" y="108" type="curve" smooth="yes"/>
      <point x="226" y="108"/>
      <point x="233" y="137"/>
    </contour>
  </outline>
</glyph>
<glyph name="P" format="1">
  <advance width="374"/>
  <unicode hex="0050"/>
  <outline>
    <contour>
      <point x="364" y="496" type="curve" smooth="yes"/>
      <point x="364" y="342"/>
      <point x="291" y="280"/>
      <point x="192" y="280" type="curve" smooth="yes"/>
      <point x="169" y="280" type="line"/>
      <point x="169" y="0" type="line"/>
      <point x="32" y="0" type="line"/>
      <point x="32" y="700" type="line"/>
      <point x="203" y="700" type="line" smooth="yes"/>
      <point x="288" y="700"/>
      <point x="364" y="650"/>
    </contour>
    <contour>
      <point x="224" y="491" type="curve" smooth="yes"/>
      <point x="224" y="568"/>
      <point x="215" y="592"/>
      <point x="183" y="592" type="curve" smooth="yes"/>
      <point x="169" y="592" type="line"/>
      <point x="169" y="389" type="line"/>
      <point x="181" y="389" type="line" smooth="yes"/>
      <point x="214" y="389"/>
      <point x="224" y="418"/>
    </contour>
  </outline>
</glyph>
<glyph name="Q" format="1">
  <advance width="399"/>
  <unicode hex="0051"/>
  <outline>
    <contour>
      <point x="386" y="39" type="line"/>
      <point x="287" y="-50" type="line"/>
      <point x="248" y="-2" type="line"/>
      <point x="233" y="-8"/>
      <point x="216" y="-11"/>
      <point x="198" y="-11" type="curve" smooth="yes"/>
      <point x="74" y="-11"/>
      <point x="22" y="89"/>
      <point x="22" y="349" type="curve" smooth="yes"/>
      <point x="22" y="609"/>
      <point x="76" y="711"/>
      <point x="200" y="711" type="curve" smooth="yes"/>
      <point x="324" y="711"/>
      <point x="377" y="610"/>
      <point x="377" y="351" type="curve" smooth="yes"/>
      <point x="377" y="239"/>
      <point x="364" y="155"/>
      <point x="338" y="95" type="curve"/>
    </contour>
    <contour>
      <point x="233" y="349" type="curve" smooth="yes"/>
      <point x="233" y="561"/>
      <point x="226" y="592"/>
      <point x="199" y="592" type="curve" smooth="yes"/>
      <point x="172" y="592"/>
      <point x="166" y="563"/>
      <point x="166" y="351" type="curve" smooth="yes"/>
      <point x="166" y="139"/>
      <point x="173" y="108"/>
      <point x="199" y="108" type="curve" smooth="yes"/>
      <point x="226" y="108"/>
      <point x="233" y="137"/>
    </contour>
  </outline>
</glyph>
<glyph name="R" format="1">
  <advance width="387"/>
  <unicode hex="0052"/>
  <outline>
    <contour>
      <point x="370" y="0" type="line"/>
      <point x="230" y="0" type="line"/>
      <point x="181" y="299" type="line"/>
      <point x="169" y="299" type="line"/>
      <point x="169" y="0" type="line"/>
      <point x="32" y="0" type="line"/>
      <point x="32" y="700" type="line"/>
      <point x="203" y="700" type="line" smooth="yes"/>
      <point x="291" y="700"/>
      <point x="364" y="647"/>
      <point x="364" y="502" type="curve" smooth="yes"/>
      <point x="364" y="425"/>
      <point x="343" y="371"/>
      <point x="306" y="338" type="curve"/>
    </contour>
    <contour>
      <point x="224" y="497" type="curve" smooth="yes"/>
      <point x="224" y="569"/>
      <point x="215" y="592"/>
      <point x="183" y="592" type="curve" smooth="yes"/>
      <point x="169" y="592" type="line"/>
      <point x="169" y="403" type="line"/>
      <point x="181" y="403" type="line" smooth="yes"/>
      <point x="214" y="403"/>
      <point x="224" y="430"/>
    </contour>
  </outline>
</glyph>
<glyph name="S" format="1">
  <advance width="357"/>
  <unicode hex="0053"/>
  <outline>
    <contour>
      <point x="344" y="176" type="curve" smooth="yes"/>
      <point x="344" y="62"/>
      <point x="286" y="-11"/>
      <point x="180" y="-11" type="curve" smooth="yes"/>
      <point x="63" y="-11"/>
      <point x="25" y="69"/>
      <point x="15" y="188" type="curve"/>
      <point x="147" y="213" type="line"/>
      <point x="154" y="120"/>
      <point x="162" y="102"/>
      <point x="181" y="102" type="curve" smooth="yes"/>
      <point x="203" y="102"/>
      <point x="210" y="117"/>
      <point x="210" y="164" type="curve" smooth="yes"/>
      <point x="210" y="231"/>
      <point x="194" y="260"/>
      <point x="136" y="309" type="curve" smooth="yes"/>
      <point x="47" y="385"/>
      <point x="20" y="444"/>
      <point x="20" y="524" type="curve" smooth="yes"/>
      <point x="20" y="635"/>
      <point x="73" y="711"/>
      <point x="177" y="711" type="curve" smooth="yes"/>
      <point x="283" y="711"/>
      <point x="326" y="646"/>
      <point x="339" y="530" type="curve"/>
      <point x="210" y="504" type="line"/>
      <point x="204" y="586"/>
      <point x="195" y="598"/>
      <point x="177" y="598" type="curve" smooth="yes"/>
      <point x="157" y="598"/>
      <point x="150" y="584"/>
      <point x="150" y="541" type="curve" smooth="yes"/>
      <point x="150" y="492"/>
      <point x="163" y="469"/>
      <point x="219" y="422" type="curve" smooth="yes"/>
      <point x="314" y="343"/>
      <point x="344" y="281"/>
    </contour>
  </outline>
</glyph>
<glyph name="T" format="1">
  <advance width="336"/>
  <unicode hex="0054"/>
  <outline>
    <contour>
      <point x="327" y="576" type="line"/>
      <point x="238" y="576" type="line"/>
      <point x="238" y="0" type="line"/>
      <point x="98" y="0" type="line"/>
      <point x="98" y="576" type="line"/>
      <point x="10" y="576" type="line"/>
      <point x="10" y="700" type="line"/>
      <point x="327" y="700" type="line"/>
    </contour>
  </outline>
</glyph>
<glyph name="U" format="1">
  <advance width="404"/>
  <unicode hex="0055"/>
  <outline>
    <contour>
      <point x="374" y="191" type="line" smooth="yes"/>
      <point x="374" y="60"/>
      <point x="322" y="-11"/>
      <point x="200" y="-11" type="curve" smooth="yes"/>
      <point x="87" y="-11"/>
      <point x="30" y="62"/>
      <point x="30" y="184" type="curve" smooth="yes"/>
      <point x="30" y="700" type="line"/>
      <point x="170" y="700" type="line"/>
      <point x="170" y="174" type="line" smooth="yes"/>
      <point x="170" y="125"/>
      <point x="180" y="108"/>
      <point x="203" y="108" type="curve" smooth="yes"/>
      <point x="226" y="108"/>
      <point x="234" y="125"/>
      <point x="234" y="174" type="curve" smooth="yes"/>
      <point x="234" y="700" type="line"/>
      <point x="374" y="700" type="line"/>
    </contour>
  </outline>
</glyph>
<glyph name="V" format="1">
  <advance width="371"/>
  <unicode hex="0056"/>
  <outline>
    <contour>
      <point x="362" y="700" type="line"/>
      <point x="255" y="0" type="line"/>
      <point x="116" y="0" type="line"/>
      <point x="8" y="700" type="line"/>
      <point x="145" y="700" type="line"/>
      <point x="167" y="478" type="line" smooth="yes"/>
      <point x="176" y="385"/>
      <point x="183" y="260"/>
      <point x="187" y="185" type="curve"/>
      <point x="190" y="260"/>
      <point x="196" y="385"/>
      <point x="204" y="479" type="curve" smooth="yes"/>
      <point x="223" y="700" type="line"/>
    </contour>
  </outline>
</glyph>
<glyph name="W" format="1">
  <advance width="512"/>
  <unicode hex="0057"/>
  <outline>
    <contour>
      <point x="503" y="700" type="line"/>
      <point x="427" y="0" type="line"/>
      <point x="297" y="0" type="line"/>
      <point x="283" y="124" type="line" smooth="yes"/>
      <point x="271" y="228"/>
      <point x="260" y="331"/>
      <point x="256" y="402" type="curve"/>
      <point x="252" y="331"/>
      <point x="242" y="229"/>
      <point x="230" y="125" type="curve" smooth="yes"/>
      <point x="215" y="0" type="line"/>
      <point x="85" y="0" type="line"/>
      <point x="10" y="700" type="line"/>
      <point x="137" y="700" type="line"/>
      <point x="148" y="561" type="line" smooth="yes"/>
      <point x="154" y="485"/>
      <point x="160" y="379"/>
      <point x="163" y="287" type="curve"/>
      <point x="169" y="379"/>
      <point x="180" y="486"/>
      <point x="187" y="561" type="curve" smooth="yes"/>
      <point x="200" y="700" type="line"/>
      <point x="312" y="700" type="line"/>
      <point x="326" y="561" type="line" smooth="yes"/>
      <point x="334" y="486"/>
      <point x="344" y="379"/>
      <point x="350" y="287" type="curve"/>
      <point x="353" y="379"/>
      <point x="360" y="485"/>
      <point x="365" y="561" type="curve" smooth="yes"/>
      <point x="375" y="700" type="line"/>
    </contour>
  </outline>
</glyph>
<glyph name="X" format="1">
  <advance width="366"/>
  <unicode hex="0058"/>
  <outline>
    <contour>
      <point x="360" y="0" type="line"/>
      <point x="221" y="0" type="line"/>
      <point x="208" y="72" type="line" smooth="yes"/>
      <point x="196" y="137"/>
      <point x="187" y="192"/>
      <point x="182" y="240" type="curve"/>
      <point x="176" y="192"/>
      <point x="167" y="137"/>
      <point x="155" y="72" type="curve" smooth="yes"/>
      <point x="142" y="0" type="line"/>
      <point x="7" y="0" type="line"/>
      <point x="107" y="359" type="line"/>
      <point x="12" y="700" type="line"/>
      <point x="151" y="700" type="line"/>
      <point x="161" y="648" type="line" smooth="yes"/>
      <point x="173" y="585"/>
      <point x="180" y="532"/>
      <point x="185" y="482" type="curve"/>
      <point x="190" y="532"/>
      <point x="197" y="586"/>
      <point x="209" y="648" type="curve" smooth="yes"/>
      <point x="219" y="700" type="line"/>
      <point x="354" y="700" type="line"/>
      <point x="259" y="363" type="line"/>
    </contour>
  </outline>
</glyph>
<glyph name="Y" format="1">
  <advance width="381"/>
  <unicode hex="0059"/>
  <outline>
    <contour>
      <point x="377" y="700" type="line"/>
      <point x="262" y="281" type="line"/>
      <point x="262" y="0" type="line"/>
      <point x="121" y="0" type="line"/>
      <point x="121" y="277" type="line"/>
      <point x="4" y="700" type="line"/>
      <point x="150" y="700" type="line"/>
      <point x="164" y="620" type="line" smooth="yes"/>
      <point x="178" y="538"/>
      <point x="190" y="463"/>
      <point x="193" y="398" type="curve"/>
      <point x="196" y="463"/>
      <point x="208" y="538"/>
      <point x="221" y="620" type="curve" smooth="yes"/>
      <point x="234" y="700" type="line"/>
    </contour>
  </outline>
</glyph>
<glyph name="Z" format="1">
  <advance width="332"/>
  <unicode hex="005A"/>
  <outline>
    <contour>
      <point x="312" y="0" type="line"/>
      <point x="19" y="0" type="line"/>
      <point x="19" y="114" type="line"/>
      <point x="116" y="426" type="line" smooth="yes"/>
      <point x="131" y="476"/>
      <point x="157" y="550"/>
      <point x="168" y="580" type="curve"/>
      <point x="147" y="580"/>
      <point x="120" y="579"/>
      <point x="90" y="579" type="curve" smooth="yes"/>
      <point x="26" y="579" type="line"/>
      <point x="26" y="700" type="line"/>
      <point x="312" y="700" type="line"/>
      <point x="312" y="586" type="line"/>
      <point x="215" y="275" type="line" smooth="yes"/>
      <point x="199" y="224"/>
      <point x="174" y="150"/>
      <point x="163" y="120" type="curve"/>
      <point x="185" y="120"/>
      <point x="210" y="121"/>
      <point x="240" y="121" type="curve" smooth="yes"/>
      <point x="312" y="121" type="line"/>
    </contour>
  </outline>
</glyph>
<glyph name="bracketleft" format="1">
  <advance width="275"/>
  <unicode hex="005B"/>
  <outline>
    <contour>
      <point x="245" y="-93" type="line"/>
      <point x="32" y="-93" type="line"/>
      <point x="32" y="700" type="line"/>
      <point x="245" y="700" type="line"/>
      <point x="245" y="586" type="line"/>
      <point x="163" y="586" type="line"/>
      <point x="163" y="21" type="line"/>
      <point x="245" y="21" type="line"/>
    </contour>
  </outline>
</glyph>
<glyph name="backslash" format="1">
  <advance width="280"/>
  <unicode hex="005C"/>
  <outline>
    <contour>
      <point x="294" y="-90" type="line"/>
      <point x="166" y="-90" type="line"/>
      <point x="-14" y="790" type="line"/>
      <point x="114" y="790" type="line"/>
    </contour>
  </outline>
</glyph>
<glyph name="bracketright" format="1">
  <advance width="275"/>
  <unicode hex="005D"/>
  <outline>
    <contour>
      <point x="243" y="-93" type="line"/>
      <point x="30" y="-93" type="line"/>
      <point x="30" y="21" type="line"/>
      <point x="112" y="21" type="line"/>
      <point x="112" y="586" type="line"/>
      <point x="30" y="586" type="line"/>
      <point x="30" y="700" type="line"/>
      <point x="243" y="700" type="line"/>
    </contour>
  </outline>
</glyph>
<glyph name="asciicircum" format="1">
  <advance width="350"/>
  <unicode hex="005E"/>
  <outline>
    <contour>
      <point x="337" y="382" type="line"/>
      <point x="210" y="382" type="line"/>
      <point x="174" y="563" type="line"/>
      <point x="139" y="382" type="line"/>
      <point x="13" y="382" type="line"/>
      <point x="117" y="700" type="line"/>
      <point x="233" y="700" type="line"/>
    </contour>
  </outline>
</glyph>
<glyph name="underscore" format="1">
  <advance width="245"/>
  <unicode hex="005F"/>
  <outline>
    <contour>
      <point x="245" y="-175" type="line"/>
      <point x="0" y="-175" type="line"/>
      <point x="0" y="-67" type="line"/>
      <point x="245" y="-67" type="line"/>
    </contour>
  </outline>
</glyph>
<glyph name="grave" format="1">
  <advance width="330"/>
  <unicode hex="0060"/>
  <outline>
    <contour>
      <point x="255" y="585" type="line"/>
      <point x="167" y="585" type="line"/>
      <point x="40" y="745" type="line"/>
      <point x="183" y="745" type="line"/>
    </contour>
  </outline>
</glyph>
<glyph name="a" format="1">
  <advance width="347"/>
  <unicode hex="0061"/>
  <outline>
    <contour>
      <point x="323" y="0" type="line"/>
      <point x="190" y="0" type="line"/>
      <point x="190" y="25" type="line"/>
      <point x="169" y="1"/>
      <point x="148" y="-11"/>
      <point x="116" y="-11" type="curve" smooth="yes"/>
      <point x="45" y="-11"/>
      <point x="14" y="43"/>
      <point x="14" y="162" type="curve" smooth="yes"/>
      <point x="14" y="280"/>
      <point x="51" y="338"/>
      <point x="134" y="338" type="curve" smooth="yes"/>
      <point x="159" y="338"/>
      <point x="177" y="332"/>
      <point x="190" y="324" type="curve"/>
      <point x="190" y="381" type="line" smooth="yes"/>
      <point x="190" y="410"/>
      <point x="183" y="422"/>
      <point x="158" y="422" type="curve" smooth="yes"/>
      <point x="131" y="422"/>
      <point x="103" y="408"/>
      <point x="66" y="381" type="curve"/>
      <point x="26" y="477" type="line"/>
      <point x="66" y="509"/>
      <point x="125" y="536"/>
      <point x="180" y="536" type="curve" smooth="yes"/>
      <point x="274" y="536"/>
      <point x="323" y="499"/>
      <point x="323" y="396" type="curve" smooth="yes"/>
    </contour>
    <contour>
      <point x="190" y="98" type="curve"/>
      <point x="190" y="234" type="line"/>
      <point x="183" y="239"/>
      <point x="177" y="241"/>
      <point x="164" y="241" type="curve" smooth="yes"/>
      <point x="146" y="241"/>
      <point x="138" y="225"/>
      <point x="138" y="164" type="curve" smooth="yes"/>
      <point x="138" y="108"/>
      <point x="144" y="90"/>
      <point x="165" y="90" type="curve" smooth="yes"/>
      <point x="177" y="90"/>
      <point x="184" y="92"/>
    </contour>
  </outline>
</glyph>
<glyph name="c" format="1">
  <advance width="339"/>
  <unicode hex="0063"/>
  <outline>
    <contour>
      <point x="325" y="172" type="line"/>
      <point x="309" y="49"/>
      <point x="263" y="-11"/>
      <point x="176" y="-11" type="curve" smooth="yes"/>
      <point x="82" y="-11"/>
      <point x="19" y="57"/>
      <point x="19" y="259" type="curve" smooth="yes"/>
      <point x="19" y="463"/>
      <point x="74" y="536"/>
      <point x="178" y="536" type="curve" smooth="yes"/>
      <point x="275" y="536"/>
      <point x="312" y="461"/>
      <point x="323" y="353" type="curve"/>
      <point x="204" y="330" type="line"/>
      <point x="200" y="403"/>
      <point x="195" y="423"/>
      <point x="177" y="423" type="curve" smooth="yes"/>
      <point x="153" y="423"/>
      <point x="148" y="395"/>
      <point x="148" y="261" type="curve" smooth="yes"/>
      <point x="148" y="130"/>
      <point x="153" y="102"/>
      <point x="177" y="102" type="curve" smooth="yes"/>
      <point x="194" y="102"/>
      <point x="199" y="118"/>
      <point x="208" y="202" type="curve"/>
    </contour>
  </outline>
</glyph>
<glyph name="e" format="1">
  <advance width="345"/>
  <unicode hex="0065"/>
  <outline>
    <contour>
      <point x="326" y="225" type="curve"/>
      <point x="143" y="225" type="line"/>
      <point x="144" y="115"/>
      <point x="154" y="94"/>
      <point x="175" y="94" type="curve" smooth="yes"/>
      <point x="192" y="94"/>
      <point x="198" y="109"/>
      <point x="210" y="173" type="curve"/>
      <point x="323" y="144" type="line"/>
      <point x="299" y="53"/>
      <point x="266" y="-11"/>
      <point x="170" y="-11" type="curve" smooth="yes"/>
      <point x="67" y="-11"/>
      <point x="19" y="84"/>
      <point x="19" y="259" type="curve" smooth="yes"/>
      <point x="19" y="438"/>
      <point x="60" y="536"/>
      <point x="176" y="536" type="curve" smooth="yes"/>
      <point x="279" y="536"/>
      <point x="326" y="445"/>
      <point x="326" y="264" type="curve" smooth="yes"/>
      <point x="326" y="258"/>
      <point x="326" y="234"/>
    </contour>
    <contour>
      <point x="204" y="316" type="line"/>
      <point x="202" y="409"/>
      <point x="194" y="436"/>
      <point x="174" y="436" type="curve" smooth="yes"/>
      <point x="154" y="436"/>
      <point x="146" y="416"/>
      <point x="143" y="316" type="curve"/>
    </contour>
  </outline>
</glyph>
<glyph name="g" format="1">
  <advance width="355"/>
  <unicode hex="0067"/>
  <outline>
    <contour>
      <point x="329" y="31" type="line" smooth="yes"/>
      <point x="329" y="-126"/>
      <point x="265" y="-169"/>
      <point x="108" y="-193" type="curve"/>
      <point x="83" y="-95" type="line"/>
      <point x="185" y="-77"/>
      <point x="202" y="-60"/>
      <point x="202" y="16" type="curve" smooth="yes"/>
      <point x="202" y="25" type="line"/>
      <point x="186" y="5"/>
      <point x="161" y="-11"/>
      <point x="129" y="-11" type="curve" smooth="yes"/>
      <point x="49" y="-11"/>
      <point x="20" y="85"/>
      <point x="20" y="259" type="curve" smooth="yes"/>
      <point x="20" y="451"/>
      <point x="57" y="536"/>
      <point x="130" y="536" type="curve" smooth="yes"/>
      <point x="157" y="536"/>
      <point x="183" y="522"/>
      <point x="202" y="502" type="curve"/>
      <point x="202" y="525" type="line"/>
      <point x="329" y="525" type="line"/>
    </contour>
    <contour>
      <point x="202" y="113" type="curve"/>
      <point x="202" y="411" type="line"/>
      <point x="196" y="417"/>
      <point x="187" y="423"/>
      <point x="176" y="423" type="curve" smooth="yes"/>
      <point x="157" y="423"/>
      <point x="148" y="411"/>
      <point x="148" y="262" type="curve" smooth="yes"/>
      <point x="148" y="115"/>
      <point x="157" y="101"/>
      <point x="177" y="101" type="curve" smooth="yes"/>
      <point x="186" y="101"/>
      <point x="194" y="106"/>
    </contour>
  </outline>
</glyph>
<glyph name="h" format="1">
  <advance width="356"/>
  <unicode hex="0068"/>
  <outline>
    <contour>
      <point x="332" y="0" type="line"/>
      <point x="205" y="0" type="line"/>
      <point x="205" y="391" type="line" smooth="yes"/>
      <point x="205" y="412"/>
      <point x="199" y="423"/>
      <point x="185" y="423" type="curve" smooth="yes"/>
      <point x="172" y="423"/>
      <point x="164" y="419"/>
      <point x="154" y="412" type="curve"/>
      <point x="154" y="0" type="line"/>
      <point x="26" y="0" type="line"/>
      <point x="26" y="681" type="line"/>
      <point x="154" y="729" type="line"/>
      <point x="154" y="499" type="line"/>
      <point x="175" y="520"/>
      <point x="198" y="536"/>
      <point x="237" y="536" type="curve" smooth="yes"/>
      <point x="296" y="536"/>
      <point x="332" y="508"/>
      <point x="332" y="422" type="curve" smooth="yes"/>
    </contour>
  </outline>
</glyph>
<glyph name="i" format="1">
  <advance width="182"/>
  <unicode hex="0069"/>
  <outline>
    <contour>
      <point x="161" y="655" type="curve" smooth="yes"/>
      <point x="161" y="614"/>
      <point x="133" y="585"/>
      <point x="91" y="585" type="curve" smooth="yes"/>
      <point x="49" y="585"/>
      <point x="21" y="614"/>
      <point x="21" y="655" type="curve" smooth="yes"/>
      <point x="21" y="697"/>
      <point x="49" y="726"/>
      <point x="91" y="726" type="curve" smooth="yes"/>
      <point x="133" y="726"/>
      <point x="161" y="697"/>
    </contour>
    <contour>
      <point x="155" y="0" type="line"/>
      <point x="27" y="0" type="line"/>
      <point x="27" y="525" type="line"/>
      <point x="155" y="525" type="line"/>
    </contour>
  </outline>
</glyph>
<glyph name="j" format="1">
  <advance width="182"/>
  <unicode hex="006A"/>
  <outline>
    <contour>
      <point x="161" y="655" type="curve" smooth="yes"/>
      <point x="161" y="614"/>
      <point x="133" y="585"/>
      <point x="91" y="585" type="curve" smooth="yes"/>
      <point x="49" y="585"/>
      <point x="21" y="614"/>
      <point x="21" y="655" type="curve" smooth="yes"/>
      <point x="21" y="697"/>
      <point x="49" y="726"/>
      <point x="91" y="726" type="curve" smooth="yes"/>
      <point x="133" y="726"/>
      <point x="161" y="697"/>
    </contour>
    <contour>
      <point x="155" y="-15" type="line" smooth="yes"/>
      <point x="155" y="-150"/>
      <point x="101" y="-173"/>
      <point x="-22" y="-193" type="curve"/>
      <point x="-42" y="-96" type="line"/>
      <point x="17" y="-83"/>
      <point x="27" y="-75"/>
      <point x="27" y="-30" type="curve" smooth="yes"/>
      <point x="27" y="525" type="line"/>
      <point x="155" y="525" type="line"/>
    </contour>
  </outline>
</glyph>
<glyph name="k" format="1">
  <advance width="350"/>
  <unicode hex="006B"/>
  <outline>
    <contour>
      <point x="343" y="0" type="line"/>
      <point x="213" y="0" type="line"/>
      <point x="170" y="222" type="line"/>
      <point x="154" y="184" type="line"/>
      <point x="154" y="0" type="line"/>
      <point x="26" y="0" type="line"/>
      <point x="26" y="681" type="line"/>
      <point x="154" y="729" type="line"/>
      <point x="154" y="482" type="line" smooth="yes"/>
      <point x="154" y="434"/>
      <point x="153" y="388"/>
      <point x="150" y="348" type="curve"/>
      <point x="161" y="387"/>
      <point x="182" y="447"/>
      <point x="199" y="489" type="curve" smooth="yes"/>
      <point x="214" y="525" type="line"/>
      <point x="340" y="525" type="line"/>
      <point x="261" y="357" type="line"/>
    </contour>
  </outline>
</glyph>
<glyph name="l" format="1">
  <advance width="182"/>
  <unicode hex="006C"/>
  <outline>
    <contour>
      <point x="155" y="0" type="line"/>
      <point x="27" y="0" type="line"/>
      <point x="27" y="681" type="line"/>
      <point x="155" y="729" type="line"/>
    </contour>
  </outline>
</glyph>
<glyph name="m" format="1">
  <advance width="533"/>
  <unicode hex="006D"/>
  <outline>
    <contour>
      <point x="509" y="0" type="line"/>
      <point x="381" y="0" type="line"/>
      <point x="381" y="391" type="line" smooth="yes"/>
      <point x="381" y="412"/>
      <point x="376" y="423"/>
      <point x="362" y="423" type="curve" smooth="yes"/>
      <point x="350" y="423"/>
      <point x="341" y="418"/>
      <point x="331" y="412" type="curve"/>
      <point x="331" y="0" type="line"/>
      <point x="204" y="0" type="line"/>
      <point x="204" y="391" type="line" smooth="yes"/>
      <point x="204" y="412"/>
      <point x="199" y="423"/>
      <point x="185" y="423" type="curve" smooth="yes"/>
      <point x="172" y="423"/>
      <point x="164" y="418"/>
      <point x="154" y="412" type="curve"/>
      <point x="154" y="0" type="line"/>
      <point x="26" y="0" type="line"/>
      <point x="26" y="525" type="line"/>
      <point x="154" y="525" type="line"/>
      <point x="154" y="499" type="line"/>
      <point x="174" y="520"/>
      <point x="198" y="536"/>
      <point x="237" y="536" type="curve" smooth="yes"/>
      <point x="280" y="536"/>
      <point x="301" y="526"/>
      <point x="322" y="496" type="curve"/>
      <point x="350" y="523"/>
      <point x="377" y="536"/>
      <point x="414" y="536" type="curve" smooth="yes"/>
      <point x="473" y="536"/>
      <point x="509" y="508"/>
      <point x="509" y="423" type="curve" smooth="yes"/>
    </contour>
  </outline>
</glyph>
<glyph name="o" format="1">
  <advance width="353"/>
  <unicode hex="006F"/>
  <outline>
    <contour>
      <point x="335" y="264" type="curve" smooth="yes"/>
      <point x="335" y="85"/>
      <point x="293" y="-11"/>
      <point x="175" y="-11" type="curve" smooth="yes"/>
      <point x="65" y="-11"/>
      <point x="19" y="82"/>
      <point x="19" y="260" type="curve" smooth="yes"/>
      <point x="19" y="433"/>
      <point x="55" y="536"/>
      <point x="179" y="536" type="curve" smooth="yes"/>
      <point x="292" y="536"/>
      <point x="335" y="440"/>
    </contour>
    <contour>
      <point x="207" y="261" type="curve" smooth="yes"/>
      <point x="207" y="395"/>
      <point x="201" y="424"/>
      <point x="177" y="424" type="curve" smooth="yes"/>
      <point x="152" y="424"/>
      <point x="148" y="391"/>
      <point x="148" y="264" type="curve" smooth="yes"/>
      <point x="148" y="134"/>
      <point x="151" y="101"/>
      <point x="178" y="101" type="curve" smooth="yes"/>
      <point x="202" y="101"/>
      <point x="207" y="134"/>
    </contour>
  </outline>
</glyph>
<glyph name="p" format="1">
  <advance width="355"/>
  <unicode hex="0070"/>
  <outline>
    <contour>
      <point x="336" y="266" type="curve" smooth="yes"/>
      <point x="336" y="74"/>
      <point x="298" y="-11"/>
      <point x="225" y="-11" type="curve" smooth="yes"/>
      <point x="198" y="-11"/>
      <point x="173" y="3"/>
      <point x="154" y="23" type="curve"/>
      <point x="154" y="-145" type="line"/>
      <point x="26" y="-193" type="line"/>
      <point x="26" y="525" type="line"/>
      <point x="154" y="525" type="line"/>
      <point x="154" y="500" type="line"/>
      <point x="170" y="520"/>
      <point x="194" y="536"/>
      <point x="226" y="536" type="curve" smooth="yes"/>
      <point x="306" y="536"/>
      <point x="336" y="440"/>
    </contour>
    <contour>
      <point x="207" y="263" type="curve" smooth="yes"/>
      <point x="207" y="410"/>
      <point x="198" y="424"/>
      <point x="179" y="424" type="curve" smooth="yes"/>
      <point x="169" y="424"/>
      <point x="161" y="419"/>
      <point x="154" y="412" type="curve"/>
      <point x="154" y="114" type="line"/>
      <point x="160" y="108"/>
      <point x="168" y="102"/>
      <point x="179" y="102" type="curve" smooth="yes"/>
      <point x="198" y="102"/>
      <point x="207" y="114"/>
    </contour>
  </outline>
</glyph>
<glyph name="r" format="1">
  <advance width="270"/>
  <unicode hex="0072"/>
  <outline>
    <contour>
      <point x="262" y="529" type="curve"/>
      <point x="250" y="395" type="line"/>
      <point x="233" y="408"/>
      <point x="220" y="413"/>
      <point x="199" y="413" type="curve" smooth="yes"/>
      <point x="181" y="413"/>
      <point x="166" y="408"/>
      <point x="154" y="395" type="curve"/>
      <point x="154" y="0" type="line"/>
      <point x="26" y="0" type="line"/>
      <point x="26" y="525" type="line"/>
      <point x="154" y="525" type="line"/>
      <point x="154" y="499" type="line"/>
      <point x="171" y="521"/>
      <point x="192" y="536"/>
      <point x="219" y="536" type="curve" smooth="yes"/>
      <point x="243" y="536"/>
      <point x="251" y="533"/>
    </contour>
  </outline>
</glyph>
<glyph name="s" format="1">
  <advance width="324"/>
  <unicode hex="0073"/>
  <outline>
    <contour>
      <point x="308" y="136" type="curve" smooth="yes"/>
      <point x="308" y="39"/>
      <point x="245" y="-11"/>
      <point x="156" y="-11" type="curve" smooth="yes"/>
      <point x="69" y="-11"/>
      <point x="34" y="42"/>
      <point x="14" y="124" type="curve"/>
      <point x="121" y="162" type="line"/>
      <point x="134" y="108"/>
      <point x="145" y="89"/>
      <point x="161" y="89" type="curve" smooth="yes"/>
      <point x="180" y="89"/>
      <point x="189" y="100"/>
      <point x="189" y="123" type="curve" smooth="yes"/>
      <point x="189" y="165"/>
      <point x="177" y="184"/>
      <point x="125" y="218" type="curve" smooth="yes"/>
      <point x="41" y="273"/>
      <point x="19" y="323"/>
      <point x="19" y="391" type="curve" smooth="yes"/>
      <point x="19" y="478"/>
      <point x="69" y="536"/>
      <point x="161" y="536" type="curve" smooth="yes"/>
      <point x="243" y="536"/>
      <point x="277" y="493"/>
      <point x="301" y="414" type="curve"/>
      <point x="196" y="376" type="line"/>
      <point x="184" y="417"/>
      <point x="175" y="436"/>
      <point x="159" y="436" type="curve" smooth="yes"/>
      <point x="142" y="436"/>
      <point x="134" y="426"/>
      <point x="134" y="408" type="curve" smooth="yes"/>
      <point x="134" y="370"/>
      <point x="150" y="355"/>
      <point x="204" y="319" type="curve" smooth="yes"/>
      <point x="290" y="262"/>
      <point x="308" y="209"/>
    </contour>
  </outline>
</glyph>
<glyph name="t" format="1">
  <advance width="258"/>
  <unicode hex="0074"/>
  <outline>
    <contour>
      <point x="244" y="118" type="curve"/>
      <point x="233" y="4" type="line"/>
      <point x="208" y="-6"/>
      <point x="185" y="-11"/>
      <point x="156" y="-11" type="curve" smooth="yes"/>
      <point x="89" y="-11"/>
      <point x="50" y="25"/>
      <point x="50" y="103" type="curve" smooth="yes"/>
      <point x="50" y="411" type="line"/>
      <point x="13" y="411" type="line"/>
      <point x="13" y="525" type="line"/>
      <point x="50" y="525" type="line"/>
      <point x="50" y="682" type="line"/>
      <point x="175" y="729" type="line"/>
      <point x="175" y="525" type="line"/>
      <point x="239" y="525" type="line"/>
      <point x="239" y="411" type="line"/>
      <point x="175" y="411" type="line"/>
      <point x="175" y="142" type="line" smooth="yes"/>
      <point x="175" y="118"/>
      <point x="184" y="106"/>
      <point x="200" y="106" type="curve" smooth="yes"/>
      <point x="218" y="106"/>
      <point x="228" y="110"/>
    </contour>
  </outline>
</glyph>
<glyph name="u" format="1">
  <advance width="356"/>
  <unicode hex="0075"/>
  <outline>
    <contour>
      <point x="330" y="0" type="line"/>
      <point x="203" y="0" type="line"/>
      <point x="203" y="26" type="line"/>
      <point x="182" y="5"/>
      <point x="158" y="-11"/>
      <point x="119" y="-11" type="curve" smooth="yes"/>
      <point x="60" y="-11"/>
      <point x="24" y="17"/>
      <point x="24" y="103" type="curve" smooth="yes"/>
      <point x="24" y="525" type="line"/>
      <point x="151" y="525" type="line"/>
      <point x="151" y="134" type="line" smooth="yes"/>
      <point x="151" y="113"/>
      <point x="157" y="102"/>
      <point x="171" y="102" type="curve" smooth="yes"/>
      <point x="184" y="102"/>
      <point x="192" y="106"/>
      <point x="203" y="113" type="curve"/>
      <point x="203" y="525" type="line"/>
      <point x="330" y="525" type="line"/>
    </contour>
  </outline>
</glyph>
<glyph name="v" format="1">
  <advance width="347"/>
  <unicode hex="0076"/>
  <outline>
    <contour>
      <point x="340" y="525" type="line"/>
      <point x="239" y="0" type="line"/>
      <point x="108" y="0" type="line"/>
      <point x="7" y="525" type="line"/>
      <point x="139" y="525" type="line"/>
      <point x="148" y="450" type="line" smooth="yes"/>
      <point x="158" y="365"/>
      <point x="169" y="241"/>
      <point x="174" y="144" type="curve"/>
      <point x="179" y="242"/>
      <point x="190" y="366"/>
      <point x="200" y="450" type="curve" smooth="yes"/>
      <point x="209" y="525" type="line"/>
    </contour>
  </outline>
</glyph>
<glyph name="w" format="1">
  <advance width="495"/>
  <unicode hex="0077"/>
  <outline>
    <contour>
      <point x="485" y="525" type="line"/>
      <point x="416" y="0" type="line"/>
      <point x="287" y="0" type="line"/>
      <point x="277" y="73" type="line" smooth="yes"/>
      <point x="263" y="173"/>
      <point x="254" y="264"/>
      <point x="248" y="348" type="curve"/>
      <point x="241" y="264"/>
      <point x="232" y="172"/>
      <point x="218" y="73" type="curve" smooth="yes"/>
      <point x="208" y="0" type="line"/>
      <point x="80" y="0" type="line"/>
      <point x="11" y="525" type="line"/>
      <point x="128" y="525" type="line"/>
      <point x="134" y="455" type="line" smooth="yes"/>
      <point x="140" y="390"/>
      <point x="150" y="249"/>
      <point x="152" y="182" type="curve"/>
      <point x="156" y="249"/>
      <point x="172" y="390"/>
      <point x="180" y="452" type="curve" smooth="yes"/>
      <point x="189" y="525" type="line"/>
      <point x="308" y="525" type="line"/>
      <point x="317" y="452" type="line" smooth="yes"/>
      <point x="325" y="390"/>
      <point x="341" y="249"/>
      <point x="345" y="182" type="curve"/>
      <point x="348" y="249"/>
      <point x="358" y="392"/>
      <point x="363" y="455" type="curve" smooth="yes"/>
      <point x="369" y="525" type="line"/>
    </contour>
  </outline>
</glyph>
<glyph name="x" format="1">
  <advance width="346"/>
  <unicode hex="0078"/>
  <outline>
    <contour>
      <point x="341" y="0" type="line"/>
      <point x="210" y="0" type="line"/>
      <point x="198" y="49" type="line" smooth="yes"/>
      <point x="189" y="86"/>
      <point x="179" y="131"/>
      <point x="173" y="164" type="curve"/>
      <point x="167" y="130"/>
      <point x="158" y="85"/>
      <point x="149" y="49" type="curve" smooth="yes"/>
      <point x="137" y="0" type="line"/>
      <point x="5" y="0" type="line"/>
      <point x="104" y="268" type="line"/>
      <point x="11" y="525" type="line"/>
      <point x="141" y="525" type="line"/>
      <point x="148" y="497" type="line" smooth="yes"/>
      <point x="157" y="460"/>
      <point x="167" y="416"/>
      <point x="172" y="382" type="curve"/>
      <point x="177" y="416"/>
      <point x="188" y="461"/>
      <point x="197" y="497" type="curve" smooth="yes"/>
      <point x="204" y="525" type="line"/>
      <point x="335" y="525" type="line"/>
      <point x="242" y="272" type="line"/>
    </contour>
  </outline>
</glyph>
<glyph name="y" format="1">
  <advance width="349"/>
  <unicode hex="0079"/>
  <outline>
    <contour>
      <point x="342" y="525" type="line"/>
      <point x="198" y="-185" type="line"/>
      <point x="72" y="-185" type="line"/>
      <point x="117" y="-8" type="line"/>
      <point x="7" y="525" type="line"/>
      <point x="139" y="525" type="line"/>
      <point x="147" y="450" type="line" smooth="yes"/>
      <point x="156" y="365"/>
      <point x="170" y="241"/>
      <point x="175" y="144" type="curve"/>
      <point x="180" y="241"/>
      <point x="192" y="365"/>
      <point x="202" y="450" type="curve" smooth="yes"/>
      <point x="211" y="525" type="line"/>
    </contour>
  </outline>
</glyph>
<glyph name="z" format="1">
  <advance width="308"/>
  <unicode hex="007A"/>
  <outline>
    <contour>
      <point x="287" y="0" type="line"/>
      <point x="17" y="0" type="line"/>
      <point x="17" y="103" type="line"/>
      <point x="103" y="309" type="line" smooth="yes"/>
      <point x="118" y="345"/>
      <point x="139" y="390"/>
      <point x="152" y="416" type="curve"/>
      <point x="129" y="415"/>
      <point x="100" y="415"/>
      <point x="72" y="415" type="curve" smooth="yes"/>
      <point x="31" y="415" type="line"/>
      <point x="31" y="525" type="line"/>
      <point x="287" y="525" type="line"/>
      <point x="287" y="422" type="line"/>
      <point x="200" y="216" type="line" smooth="yes"/>
      <point x="185" y="181"/>
      <point x="164" y="135"/>
      <point x="152" y="109" type="curve"/>
      <point x="175" y="110"/>
      <point x="204" y="110"/>
      <point x="232" y="110" type="curve" smooth="yes"/>
      <point x="287" y="110" type="line"/>
    </contour>
  </outline>
</glyph>
<glyph name="braceleft" format="1">
  <advance width="295"/>
  <unicode hex="007B"/>
  <outline>
    <contour>
      <point x="277" y="-110" type="line"/>
      <point x="132" y="-110"/>
      <point x="81" y="-50"/>
      <point x="81" y="74" type="curve" smooth="yes"/>
      <point x="81" y="175" type="line" smooth="yes"/>
      <point x="81" y="224"/>
      <point x="66" y="245"/>
      <point x="31" y="245" type="curve" smooth="yes"/>
      <point x="8" y="245" type="line"/>
      <point x="8" y="356" type="line"/>
      <point x="31" y="356" type="line" smooth="yes"/>
      <point x="66" y="356"/>
      <point x="81" y="377"/>
      <point x="81" y="426" type="curve" smooth="yes"/>
      <point x="81" y="527" type="line" smooth="yes"/>
      <point x="81" y="651"/>
      <point x="132" y="711"/>
      <point x="277" y="711" type="curve"/>
      <point x="277" y="600" type="line"/>
      <point x="224" y="596"/>
      <point x="212" y="580"/>
      <point x="212" y="528" type="curve" smooth="yes"/>
      <point x="212" y="457" type="line" smooth="yes"/>
      <point x="212" y="363"/>
      <point x="198" y="322"/>
      <point x="136" y="301" type="curve"/>
      <point x="198" y="279"/>
      <point x="212" y="238"/>
      <point x="212" y="144" type="curve" smooth="yes"/>
      <point x="212" y="73" type="line" smooth="yes"/>
      <point x="212" y="21"/>
      <point x="224" y="5"/>
      <point x="277" y="1" type="curve"/>
    </contour>
  </outline>
</glyph>
<glyph name="bar" format="1">
  <advance width="206"/>
  <unicode hex="007C"/>
  <outline>
    <contour>
      <point x="167" y="-185" type="line"/>
      <point x="39" y="-185" type="line"/>
      <point x="39" y="800" type="line"/>
      <point x="167" y="800" type="line"/>
    </contour>
  </outline>
</glyph>
<glyph name="braceright" format="1">
  <advance width="295"/>
  <unicode hex="007D"/>
  <outline>
    <contour>
      <point x="287" y="245" type="line"/>
      <point x="264" y="245" type="line" smooth="yes"/>
      <point x="229" y="245"/>
      <point x="214" y="224"/>
      <point x="214" y="175" type="curve" smooth="yes"/>
      <point x="214" y="74" type="line" smooth="yes"/>
      <point x="214" y="-50"/>
      <point x="163" y="-110"/>
      <point x="18" y="-110" type="curve"/>
      <point x="18" y="1" type="line"/>
      <point x="71" y="5"/>
      <point x="83" y="21"/>
      <point x="83" y="73" type="curve" smooth="yes"/>
      <point x="83" y="144" type="line" smooth="yes"/>
      <point x="83" y="238"/>
      <point x="97" y="279"/>
      <point x="159" y="300" type="curve"/>
      <point x="97" y="322"/>
      <point x="83" y="363"/>
      <point x="83" y="457" type="curve" smooth="yes"/>
      <point x="83" y="528" type="line" smooth="yes"/>
      <point x="83" y="580"/>
      <point x="71" y="596"/>
      <point x="18" y="600" type="curve"/>
      <point x="18" y="711" type="line"/>
      <point x="163" y="711"/>
      <point x="214" y="651"/>
      <point x="214" y="527" type="curve" smooth="yes"/>
      <point x="214" y="426" type="line" smooth="yes"/>
      <point x="214" y="377"/>
      <point x="229" y="356"/>
      <point x="264" y="356" type="curve" smooth="yes"/>
      <point x="287" y="356" type="line"/>
    </contour>
  </outline>
</glyph>
<glyph name="asciitilde" format="1">
  <advance width="375"/>
  <unicode hex="007E"/>
  <outline>
    <contour>
      <point x="361" y="437" type="line"/>
      <point x="339" y="333"/>
      <point x="306" y="296"/>
      <point x="246" y="296" type="curve" smooth="yes"/>
      <point x="203" y="296"/>
      <point x="184" y="312"/>
      <point x="160" y="335" type="curve" smooth="yes"/>
      <point x="150" y="345"/>
      <point x="144" y="350"/>
      <point x="136" y="350" type="curve" smooth="yes"/>
      <point x="125" y="350"/>
      <point x="122" y="348"/>
      <point x="107" y="293" type="curve"/>
      <point x="14" y="312" type="line"/>
      <point x="36" y="416"/>
      <point x="69" y="453"/>
      <point x="129" y="453" type="curve" smooth="yes"/>
      <point x="172" y="453"/>
      <point x="191" y="437"/>
      <point x="215" y="414" type="curve" smooth="yes"/>
      <point x="225" y="404"/>
      <point x="231" y="399"/>
      <point x="239" y="399" type="curve" smooth="yes"/>
      <point x="250" y="399"/>
      <point x="253" y="401"/>
      <point x="268" y="456" type="curve"/>
    </contour>
  </outline>
</glyph>
<glyph name="exclamdown" format="1">
  <advance width="196"/>
  <unicode hex="00A1"/>
  <outline>
    <contour>
      <point x="174" y="636" type="curve" smooth="yes"/>
      <point x="174" y="591"/>
      <point x="143" y="560"/>
      <point x="98" y="560" type="curve" smooth="yes"/>
      <point x="53" y="560"/>
      <point x="23" y="591"/>
      <point x="23" y="636" type="curve" smooth="yes"/>
      <point x="23" y="680"/>
      <point x="53" y="711"/>
      <point x="98" y="711" type="curve" smooth="yes"/>
      <point x="143" y="711"/>
      <point x="174" y="680"/>
    </contour>
    <contour>
      <point x="163" y="0" type="line"/>
      <point x="33" y="0" type="line"/>
      <point x="33" y="327" type="line"/>
      <point x="53" y="513" type="line"/>
      <point x="143" y="513" type="line"/>
      <point x="163" y="327" type="line"/>
    </contour>
  </outline>
</glyph>
<glyph name="cent" format="1">
  <advance width="339"/>
  <unicode hex="00A2"/>
  <outline>
    <contour>
      <point x="325" y="265" type="line"/>
      <point x="313" y="176"/>
      <point x="286" y="120"/>
      <point x="239" y="96" type="curve"/>
      <point x="239" y="-11" type="line"/>
      <point x="112" y="-11" type="line"/>
      <point x="112" y="96" type="line"/>
      <point x="55" y="124"/>
      <point x="19" y="200"/>
      <point x="19" y="352" type="curve" smooth="yes"/>
      <point x="19" y="507"/>
      <point x="51" y="587"/>
      <point x="112" y="615" type="curve"/>
      <point x="112" y="711" type="line"/>
      <point x="239" y="711" type="line"/>
      <point x="239" y="616" type="line"/>
      <point x="292" y="590"/>
      <point x="315" y="528"/>
      <point x="323" y="446" type="curve"/>
      <point x="204" y="423" type="line"/>
      <point x="200" y="496"/>
      <point x="195" y="516"/>
      <point x="177" y="516" type="curve" smooth="yes"/>
      <point x="153" y="516"/>
      <point x="148" y="488"/>
      <point x="148" y="354" type="curve" smooth="yes"/>
      <point x="148" y="223"/>
      <point x="153" y="195"/>
      <point x="177" y="195" type="curve" smooth="yes"/>
      <point x="194" y="195"/>
      <point x="199" y="211"/>
      <point x="208" y="295" type="curve"/>
    </contour>
  </outline>
</glyph>
<glyph name="sterling" format="1">
  <advance width="370"/>
  <unicode hex="00A3"/>
  <outline>
    <contour>
      <point x="349" y="520" type="curve"/>
      <point x="222" y="504" type="line"/>
      <point x="216" y="579"/>
      <point x="208" y="595"/>
      <point x="185" y="595" type="curve" smooth="yes"/>
      <point x="164" y="595"/>
      <point x="159" y="578"/>
      <point x="159" y="539" type="curve" smooth="yes"/>
      <point x="159" y="510"/>
      <point x="166" y="479"/>
      <point x="174" y="460" type="curve" smooth="yes"/>
      <point x="184" y="435"/>
      <point x="194" y="407"/>
      <point x="200" y="377" type="curve"/>
      <point x="282" y="377" type="line"/>
      <point x="282" y="271" type="line"/>
      <point x="204" y="271" type="line"/>
      <point x="200" y="207"/>
      <point x="183" y="172"/>
      <point x="156" y="121" type="curve"/>
      <point x="343" y="121" type="line"/>
      <point x="343" y="0" type="line"/>
      <point x="24" y="0" type="line"/>
      <point x="24" y="120" type="line"/>
      <point x="56" y="172"/>
      <point x="75" y="205"/>
      <point x="80" y="271" type="curve"/>
      <point x="34" y="271" type="line"/>
      <point x="34" y="377" type="line"/>
      <point x="71" y="377" type="line"/>
      <point x="66" y="395"/>
      <point x="58" y="414"/>
      <point x="50" y="433" type="curve" smooth="yes"/>
      <point x="38" y="460"/>
      <point x="28" y="491"/>
      <point x="28" y="532" type="curve" smooth="yes"/>
      <point x="28" y="627"/>
      <point x="75" y="711"/>
      <point x="187" y="711" type="curve" smooth="yes"/>
      <point x="286" y="711"/>
      <point x="337" y="644"/>
    </contour>
  </outline>
</glyph>
<glyph name="yen" format="1">
  <advance width="381"/>
  <unicode hex="00A5"/>
  <outline>
    <contour>
      <point x="377" y="700" type="line"/>
      <point x="259" y="271" type="line"/>
      <point x="259" y="225" type="line"/>
      <point x="342" y="225" type="line"/>
      <point x="342" y="105" type="line"/>
      <point x="259" y="105" type="line"/>
      <point x="259" y="0" type="line"/>
      <point x="124" y="0" type="line"/>
      <point x="124" y="105" type="line"/>
      <point x="41" y="105" type="line"/>
      <point x="41" y="225" type="line"/>
      <point x="124" y="225" type="line"/>
      <point x="124" y="267" type="line"/>
      <point x="4" y="700" type="line"/>
      <point x="150" y="700" type="line"/>
      <point x="164" y="620" type="line" smooth="yes"/>
      <point x="178" y="538"/>
      <point x="190" y="463"/>
      <point x="193" y="398" type="curve"/>
      <point x="196" y="463"/>
      <point x="208" y="538"/>
      <point x="221" y="620" type="curve" smooth="yes"/>
      <point x="234" y="700" type="line"/>
    </contour>
  </outline>
</glyph>
<glyph name="section" format="1">
  <advance width="410"/>
  <unicode hex="00A7"/>
  <outline>
    <contour>
      <point x="380" y="268" type="curve" smooth="yes"/>
      <point x="380" y="209"/>
      <point x="359" y="161"/>
      <point x="328" y="122" type="curve"/>
      <point x="350" y="92"/>
      <point x="365" y="55"/>
      <point x="365" y="8" type="curve" smooth="yes"/>
      <point x="365" y="-85"/>
      <point x="314" y="-164"/>
      <point x="203" y="-164" type="curve" smooth="yes"/>
      <point x="105" y="-164"/>
      <point x="51" y="-98"/>
      <point x="39" y="27" type="curve"/>
      <point x="166" y="43" type="line"/>
      <point x="174" y="-19"/>
      <point x="181" y="-48"/>
      <point x="206" y="-48" type="curve" smooth="yes"/>
      <point x="230" y="-48"/>
      <point x="238" y="-30"/>
      <point x="238" y="2" type="curve" smooth="yes"/>
      <point x="238" y="32"/>
      <point x="224" y="62"/>
      <point x="177" y="91" type="curve" smooth="yes"/>
      <point x="102" y="138"/>
      <point x="30" y="176"/>
      <point x="30" y="279" type="curve" smooth="yes"/>
      <point x="30" y="338"/>
      <point x="51" y="386"/>
      <point x="82" y="424" type="curve"/>
      <point x="60" y="455"/>
      <point x="45" y="492"/>
      <point x="45" y="539" type="curve" smooth="yes"/>
      <point x="45" y="632"/>
      <point x="96" y="711"/>
      <point x="207" y="711" type="curve" smooth="yes"/>
      <point x="305" y="711"/>
      <point x="359" y="645"/>
      <point x="371" y="520" type="curve"/>
      <point x="244" y="504" type="line"/>
      <point x="236" y="566"/>
      <point x="229" y="595"/>
      <point x="204" y="595" type="curve" smooth="yes"/>
      <point x="180" y="595"/>
      <point x="172" y="577"/>
      <point x="172" y="545" type="curve" smooth="yes"/>
      <point x="172" y="515"/>
      <point x="186" y="485"/>
      <point x="233" y="456" type="curve" smooth="yes"/>
      <point x="308" y="409"/>
      <point x="380" y="371"/>
    </contour>
    <contour>
      <point x="253" y="252" type="curve" smooth="yes"/>
      <point x="253" y="296"/>
      <point x="222" y="322"/>
      <point x="172" y="351" type="curve" smooth="yes"/>
      <point x="170" y="352"/>
      <point x="168" y="353"/>
      <point x="166" y="354" type="curve"/>
      <point x="160" y="337"/>
      <point x="157" y="317"/>
      <point x="157" y="295" type="curve" smooth="yes"/>
      <point x="157" y="251"/>
      <point x="188" y="225"/>
      <point x="238" y="196" type="curve" smooth="yes"/>
      <point x="240" y="195"/>
      <point x="242" y="194"/>
      <point x="244" y="193" type="curve"/>
      <point x="250" y="210"/>
      <point x="253" y="230"/>
    </contour>
  </outline>
</glyph>
<glyph name="dieresis" format="1">
  <advance width="330"/>
  <unicode hex="00A8"/>
  <outline>
    <contour>
      <point x="316" y="650" type="curve" smooth="yes"/>
      <point x="316" y="612"/>
      <point x="285" y="581"/>
      <point x="247" y="581" type="curve" smooth="yes"/>
      <point x="208" y="581"/>
      <point x="178" y="612"/>
      <point x="178" y="650" type="curve" smooth="yes"/>
      <point x="178" y="688"/>
      <point x="208" y="719"/>
      <point x="247" y="719" type="curve" smooth="yes"/>
      <point x="285" y="719"/>
      <point x="316" y="688"/>
    </contour>
    <contour>
      <point x="152" y="650" type="curve" smooth="yes"/>
      <point x="152" y="612"/>
      <point x="121" y="581"/>
      <point x="83" y="581" type="curve" smooth="yes"/>
      <point x="44" y="581"/>
      <point x="14" y="612"/>
      <point x="14" y="650" type="curve" smooth="yes"/>
      <point x="14" y="688"/>
      <point x="44" y="719"/>
      <point x="83" y="719" type="curve" smooth="yes"/>
      <point x="121" y="719"/>
      <point x="152" y="688"/>
    </contour>
  </outline>
</glyph>
<glyph name="copyright" format="1">
  <advance width="483"/>
  <unicode hex="00A9"/>
  <outline>
    <contour>
      <point x="461" y="350" type="curve" smooth="yes"/>
      <point x="461" y="135"/>
      <point x="387" y="-11"/>
      <point x="241" y="-11" type="curve" smooth="yes"/>
      <point x="95" y="-11"/>
      <point x="22" y="135"/>
      <point x="22" y="350" type="curve" smooth="yes"/>
      <point x="22" y="565"/>
      <point x="95" y="711"/>
      <point x="241" y="711" type="curve" smooth="yes"/>
      <point x="387" y="711"/>
      <point x="461" y="565"/>
    </contour>
    <contour>
      <point x="401" y="350" type="curve" smooth="yes"/>
      <point x="401" y="527"/>
      <point x="356" y="655"/>
      <point x="241" y="655" type="curve" smooth="yes"/>
      <point x="126" y="655"/>
      <point x="82" y="527"/>
      <point x="82" y="350" type="curve" smooth="yes"/>
      <point x="82" y="173"/>
      <point x="126" y="45"/>
      <point x="241" y="45" type="curve" smooth="yes"/>
      <point x="356" y="45"/>
      <point x="401" y="173"/>
    </contour>
    <contour>
      <point x="336" y="276" type="line"/>
      <point x="327" y="185"/>
      <point x="304" y="146"/>
      <point x="241" y="146" type="curve" smooth="yes"/>
      <point x="172" y="146"/>
      <point x="141" y="201"/>
      <point x="141" y="350" type="curve" smooth="yes"/>
      <point x="141" y="499"/>
      <point x="172" y="557"/>
      <point x="242" y="557" type="curve" smooth="yes"/>
      <point x="312" y="557"/>
      <point x="331" y="504"/>
      <point x="335" y="426" type="curve"/>
      <point x="258" y="415" type="line"/>
      <point x="255" y="472"/>
      <point x="255" y="490"/>
      <point x="242" y="490" type="curve" smooth="yes"/>
      <point x="226" y="490"/>
      <point x="223" y="471"/>
      <point x="223" y="353" type="curve" smooth="yes"/>
      <point x="223" y="230"/>
      <point x="227" y="214"/>
      <point x="243" y="214" type="curve" smooth="yes"/>
      <point x="253" y="214"/>
      <point x="257" y="223"/>
      <point x="260" y="288" type="curve"/>
    </contour>
  </outline>
</glyph>
<glyph name="ordfeminine" format="1">
  <advance width="315"/>
  <unicode hex="00AA"/>
  <outline>
    <contour>
      <point x="279" y="282" type="line"/>
      <point x="173" y="282" type="line"/>
      <point x="173" y="302" type="line"/>
      <point x="156" y="283"/>
      <point x="139" y="273"/>
      <point x="113" y="273" type="curve" smooth="yes"/>
      <point x="57" y="273"/>
      <point x="32" y="317"/>
      <point x="32" y="412" type="curve" smooth="yes"/>
      <point x="32" y="506"/>
      <point x="61" y="553"/>
      <point x="128" y="553" type="curve" smooth="yes"/>
      <point x="148" y="553"/>
      <point x="162" y="548"/>
      <point x="173" y="541" type="curve"/>
      <point x="173" y="587" type="line" smooth="yes"/>
      <point x="173" y="610"/>
      <point x="167" y="620"/>
      <point x="147" y="620" type="curve" smooth="yes"/>
      <point x="125" y="620"/>
      <point x="103" y="609"/>
      <point x="73" y="587" type="curve"/>
      <point x="41" y="664" type="line"/>
      <point x="73" y="689"/>
      <point x="121" y="711"/>
      <point x="165" y="711" type="curve" smooth="yes"/>
      <point x="240" y="711"/>
      <point x="279" y="681"/>
      <point x="279" y="599" type="curve" smooth="yes"/>
    </contour>
    <contour>
      <point x="173" y="361" type="curve"/>
      <point x="173" y="469" type="line"/>
      <point x="167" y="473"/>
      <point x="162" y="475"/>
      <point x="152" y="475" type="curve" smooth="yes"/>
      <point x="137" y="475"/>
      <point x="131" y="462"/>
      <point x="131" y="413" type="curve" smooth="yes"/>
      <point x="131" y="369"/>
      <point x="136" y="354"/>
      <point x="153" y="354" type="curve" smooth="yes"/>
      <point x="162" y="354"/>
      <point x="168" y="356"/>
    </contour>
  </outline>
</glyph>
<glyph name="guillemotleft" format="1">
  <advance width="450"/>
  <unicode hex="00AB"/>
  <outline>
    <contour>
      <point x="424" y="0" type="line"/>
      <point x="302" y="0" type="line"/>
      <point x="202" y="262" type="line"/>
      <point x="302" y="525" type="line"/>
      <point x="424" y="525" type="line"/>
      <point x="329" y="263" type="line"/>
    </contour>
    <contour>
      <point x="235" y="0" type="line"/>
      <point x="113" y="0" type="line"/>
      <point x="13" y="262" type="line"/>
      <point x="113" y="525" type="line"/>
      <point x="235" y="525" type="line"/>
      <point x="140" y="263" type="line"/>
    </contour>
  </outline>
</glyph>
<glyph name="degree" format="1">
  <advance width="358"/>
  <unicode hex="00B0"/>
  <outline>
    <contour>
      <point x="333" y="554" type="curve" smooth="yes"/>
      <point x="333" y="464"/>
      <point x="269" y="395"/>
      <point x="179" y="395" type="curve" smooth="yes"/>
      <point x="90" y="395"/>
      <point x="25" y="464"/>
      <point x="25" y="554" type="curve" smooth="yes"/>
      <point x="25" y="642"/>
      <point x="90" y="711"/>
      <point x="179" y="711" type="curve" smooth="yes"/>
      <point x="269" y="711"/>
      <point x="333" y="642"/>
    </contour>
    <contour>
      <point x="245" y="554" type="curve" smooth="yes"/>
      <point x="245" y="596"/>
      <point x="218" y="627"/>
      <point x="179" y="627" type="curve" smooth="yes"/>
      <point x="141" y="627"/>
      <point x="113" y="596"/>
      <point x="113" y="554" type="curve" smooth="yes"/>
      <point x="113" y="510"/>
      <point x="141" y="478"/>
      <point x="179" y="478" type="curve" smooth="yes"/>
      <point x="218" y="478"/>
      <point x="245" y="510"/>
    </contour>
  </outline>
</glyph>
<glyph name="acute" format="1">
  <advance width="330"/>
  <unicode hex="00B4"/>
  <outline>
    <contour>
      <point x="290" y="745" type="line"/>
      <point x="163" y="585" type="line"/>
      <point x="75" y="585" type="line"/>
      <point x="147" y="745" type="line"/>
    </contour>
  </outline>
</glyph>
<glyph name="paragraph" format="1">
  <advance width="500"/>
  <unicode hex="00B6"/>
  <outline>
    <contour>
      <point x="458" y="-185" type="line"/>
      <point x="359" y="-185" type="line"/>
      <point x="359" y="613" type="line"/>
      <point x="310" y="613" type="line"/>
      <point x="310" y="-185" type="line"/>
      <point x="211" y="-185" type="line"/>
      <point x="211" y="305" type="line"/>
      <point x="198" y="305" type="line" smooth="yes"/>
      <point x="99" y="305"/>
      <point x="25" y="371"/>
      <point x="25" y="503" type="curve" smooth="yes"/>
      <point x="25" y="635"/>
      <point x="109" y="700"/>
      <point x="208" y="700" type="curve" smooth="yes"/>
      <point x="458" y="700" type="line"/>
    </contour>
  </outline>
</glyph>
<glyph name="periodcentered" format="1">
  <advance width="208"/>
  <unicode hex="00B7"/>
  <outline>
    <contour>
      <point x="182" y="367" type="curve" smooth="yes"/>
      <point x="182" y="322"/>
      <point x="151" y="290"/>
      <point x="105" y="290" type="curve" smooth="yes"/>
      <point x="59" y="290"/>
      <point x="27" y="322"/>
      <point x="27" y="367" type="curve" smooth="yes"/>
      <point x="27" y="413"/>
      <point x="59" y="445"/>
      <point x="105" y="445" type="curve" smooth="yes"/>
      <point x="151" y="445"/>
      <point x="182" y="413"/>
    </contour>
  </outline>
</glyph>
<glyph name="cedilla" format="1">
  <advance width="330"/>
  <unicode hex="00B8"/>
  <outline>
    <contour>
      <point x="261" y="-113" type="curve" smooth="yes"/>
      <point x="261" y="-167"/>
      <point x="219" y="-193"/>
      <point x="162" y="-193" type="curve" smooth="yes"/>
      <point x="125" y="-193"/>
      <point x="89" y="-179"/>
      <point x="65" y="-162" type="curve"/>
      <point x="85" y="-126" type="line"/>
      <point x="112" y="-142"/>
      <point x="127" y="-148"/>
      <point x="150" y="-148" type="curve" smooth="yes"/>
      <point x="172" y="-148"/>
      <point x="188" y="-134"/>
      <point x="188" y="-114" type="curve" smooth="yes"/>
      <point x="188" y="-94"/>
      <point x="175" y="-87"/>
      <point x="163" y="-87" type="curve" smooth="yes"/>
      <point x="153" y="-87"/>
      <point x="143" y="-91"/>
      <point x="134" y="-98" type="curve"/>
      <point x="100" y="-75" type="line"/>
      <point x="127" y="0" type="line"/>
      <point x="173" y="0" type="line"/>
      <point x="156" y="-48" type="line"/>
      <point x="165" y="-43"/>
      <point x="180" y="-39"/>
      <point x="199" y="-39" type="curve" smooth="yes"/>
      <point x="229" y="-39"/>
      <point x="261" y="-65"/>
    </contour>
  </outline>
</glyph>
<glyph name="ordmasculine" format="1">
  <advance width="318"/>
  <unicode hex="00BA"/>
  <outline>
    <contour>
      <point x="285" y="494" type="curve" smooth="yes"/>
      <point x="285" y="350"/>
      <point x="252" y="274"/>
      <point x="157" y="274" type="curve" smooth="yes"/>
      <point x="69" y="274"/>
      <point x="33" y="348"/>
      <point x="33" y="490" type="curve" smooth="yes"/>
      <point x="33" y="629"/>
      <point x="61" y="711"/>
      <point x="161" y="711" type="curve" smooth="yes"/>
      <point x="251" y="711"/>
      <point x="285" y="634"/>
    </contour>
    <contour>
      <point x="183" y="491" type="curve" smooth="yes"/>
      <point x="183" y="598"/>
      <point x="178" y="622"/>
      <point x="159" y="622" type="curve" smooth="yes"/>
      <point x="139" y="622"/>
      <point x="136" y="595"/>
      <point x="136" y="494" type="curve" smooth="yes"/>
      <point x="136" y="390"/>
      <point x="138" y="363"/>
      <point x="160" y="363" type="curve" smooth="yes"/>
      <point x="179" y="363"/>
      <point x="183" y="390"/>
    </contour>
  </outline>
</glyph>
<glyph name="guillemotright" format="1">
  <advance width="450"/>
  <unicode hex="00BB"/>
  <outline>
    <contour>
      <point x="437" y="263" type="line"/>
      <point x="337" y="0" type="line"/>
      <point x="215" y="0" type="line"/>
      <point x="310" y="262" type="line"/>
      <point x="215" y="525" type="line"/>
      <point x="337" y="525" type="line"/>
    </contour>
    <contour>
      <point x="248" y="263" type="line"/>
      <point x="148" y="0" type="line"/>
      <point x="26" y="0" type="line"/>
      <point x="121" y="262" type="line"/>
      <point x="26" y="525" type="line"/>
      <point x="148" y="525" type="line"/>
    </contour>
  </outline>
</glyph>
<glyph name="questiondown" format="1">
  <advance width="336"/>
  <unicode hex="00BF"/>
  <outline>
    <contour>
      <point x="264" y="636" type="curve" smooth="yes"/>
      <point x="264" y="591"/>
      <point x="233" y="560"/>
      <point x="188" y="560" type="curve" smooth="yes"/>
      <point x="143" y="560"/>
      <point x="113" y="591"/>
      <point x="113" y="636" type="curve" smooth="yes"/>
      <point x="113" y="680"/>
      <point x="143" y="711"/>
      <point x="188" y="711" type="curve" smooth="yes"/>
      <point x="233" y="711"/>
      <point x="264" y="680"/>
    </contour>
    <contour>
      <point x="327" y="174" type="line"/>
      <point x="311" y="55"/>
      <point x="270" y="-11"/>
      <point x="160" y="-11" type="curve" smooth="yes"/>
      <point x="60" y="-11"/>
      <point x="12" y="59"/>
      <point x="12" y="160" type="curve" smooth="yes"/>
      <point x="12" y="233"/>
      <point x="39" y="291"/>
      <point x="76" y="342" type="curve" smooth="yes"/>
      <point x="121" y="404"/>
      <point x="129" y="433"/>
      <point x="129" y="513" type="curve"/>
      <point x="246" y="513" type="line"/>
      <point x="246" y="396"/>
      <point x="232" y="351"/>
      <point x="184" y="285" type="curve" smooth="yes"/>
      <point x="156" y="246"/>
      <point x="138" y="203"/>
      <point x="138" y="161" type="curve" smooth="yes"/>
      <point x="138" y="123"/>
      <point x="144" y="107"/>
      <point x="161" y="107" type="curve" smooth="yes"/>
      <point x="186" y="107"/>
      <point x="190" y="127"/>
      <point x="198" y="192" type="curve"/>
    </contour>
  </outline>
</glyph>
<glyph name="Aring" format="1">
  <advance width="377"/>
  <unicode hex="00C5"/>
  <outline>
    <contour>
      <point x="370" y="0" type="line"/>
      <point x="236" y="0" type="line"/>
      <point x="222" y="136" type="line"/>
      <point x="156" y="136" type="line"/>
      <point x="143" y="0" type="line"/>
      <point x="7" y="0" type="line"/>
      <point x="109" y="661" type="line"/>
      <point x="94" y="679"/>
      <point x="85" y="702"/>
      <point x="85" y="729" type="curve" smooth="yes"/>
      <point x="85" y="789"/>
      <point x="129" y="833"/>
      <point x="189" y="833" type="curve" smooth="yes"/>
      <point x="249" y="833"/>
      <point x="293" y="789"/>
      <point x="293" y="729" type="curve" smooth="yes"/>
      <point x="293" y="702"/>
      <point x="284" y="679"/>
      <point x="269" y="661" type="curve"/>
    </contour>
    <contour>
      <point x="229" y="729" type="curve" smooth="yes"/>
      <point x="229" y="753"/>
      <point x="211" y="772"/>
      <point x="189" y="772" type="curve" smooth="yes"/>
      <point x="167" y="772"/>
      <point x="149" y="753"/>
      <point x="149" y="729" type="curve" smooth="yes"/>
      <point x="149" y="705"/>
      <point x="167" y="686"/>
      <point x="189" y="686" type="curve" smooth="yes"/>
      <point x="211" y="686"/>
      <point x="229" y="705"/>
    </contour>
    <contour>
      <point x="211" y="255" type="line"/>
      <point x="207" y="301" type="line" smooth="yes"/>
      <point x="202" y="364"/>
      <point x="192" y="463"/>
      <point x="187" y="543" type="curve"/>
      <point x="183" y="463"/>
      <point x="174" y="364"/>
      <point x="168" y="300" type="curve" smooth="yes"/>
      <point x="164" y="255" type="line"/>
    </contour>
  </outline>
</glyph>
<glyph name="AE" format="1">
  <advance width="536"/>
  <unicode hex="00C6"/>
  <outline>
    <contour>
      <point x="518" y="0" type="line"/>
      <point x="236" y="0" type="line"/>
      <point x="236" y="136" type="line"/>
      <point x="158" y="136" type="line"/>
      <point x="133" y="0" type="line"/>
      <point x="4" y="0" type="line"/>
      <point x="150" y="700" type="line"/>
      <point x="512" y="700" type="line"/>
      <point x="512" y="576" type="line"/>
      <point x="368" y="576" type="line"/>
      <point x="368" y="431" type="line"/>
      <point x="478" y="431" type="line"/>
      <point x="478" y="307" type="line"/>
      <point x="368" y="307" type="line"/>
      <point x="368" y="124" type="line"/>
      <point x="518" y="124" type="line"/>
    </contour>
    <contour>
      <point x="238" y="580" type="curve"/>
      <point x="232" y="545"/>
      <point x="224" y="499"/>
      <point x="217" y="458" type="curve" smooth="yes"/>
      <point x="180" y="255" type="line"/>
      <point x="236" y="255" type="line"/>
      <point x="236" y="466" type="line" smooth="yes"/>
      <point x="236" y="509"/>
      <point x="237" y="552"/>
    </contour>
  </outline>
</glyph>
<glyph name="Ccedilla" format="1">
  <advance width="387"/>
  <unicode hex="00C7"/>
  <outline>
    <contour>
      <point x="365" y="218" type="line"/>
      <point x="350" y="64"/>
      <point x="312" y="-5"/>
      <point x="211" y="-11" type="curve"/>
      <point x="198" y="-48" type="line"/>
      <point x="207" y="-43"/>
      <point x="222" y="-39"/>
      <point x="241" y="-39" type="curve" smooth="yes"/>
      <point x="271" y="-39"/>
      <point x="303" y="-65"/>
      <point x="303" y="-113" type="curve" smooth="yes"/>
      <point x="303" y="-167"/>
      <point x="261" y="-193"/>
      <point x="204" y="-193" type="curve" smooth="yes"/>
      <point x="167" y="-193"/>
      <point x="131" y="-179"/>
      <point x="107" y="-162" type="curve"/>
      <point x="127" y="-126" type="line"/>
      <point x="154" y="-142"/>
      <point x="169" y="-148"/>
      <point x="192" y="-148" type="curve" smooth="yes"/>
      <point x="214" y="-148"/>
      <point x="230" y="-134"/>
      <point x="230" y="-114" type="curve" smooth="yes"/>
      <point x="230" y="-94"/>
      <point x="217" y="-87"/>
      <point x="205" y="-87" type="curve" smooth="yes"/>
      <point x="195" y="-87"/>
      <point x="185" y="-91"/>
      <point x="176" y="-98" type="curve"/>
      <point x="142" y="-75" type="line"/>
      <point x="166" y="-8" type="line"/>
      <point x="67" y="8"/>
      <point x="22" y="110"/>
      <point x="22" y="348" type="curve" smooth="yes"/>
      <point x="22" y="609"/>
      <point x="76" y="711"/>
      <point x="200" y="711" type="curve" smooth="yes"/>
      <point x="323" y="711"/>
      <point x="356" y="617"/>
      <point x="363" y="481" type="curve"/>
      <point x="227" y="461" type="line"/>
      <point x="223" y="562"/>
      <point x="222" y="592"/>
      <point x="199" y="592" type="curve" smooth="yes"/>
      <point x="172" y="592"/>
      <point x="166" y="559"/>
      <point x="166" y="352" type="curve" smooth="yes"/>
      <point x="166" y="137"/>
      <point x="173" y="108"/>
      <point x="201" y="108" type="curve" smooth="yes"/>
      <point x="219" y="108"/>
      <point x="226" y="125"/>
      <point x="231" y="238" type="curve"/>
    </contour>
  </outline>
</glyph>
<glyph name="Eth" format="1">
  <advance width="410"/>
  <unicode hex="00D0"/>
  <outline>
    <contour>
      <point x="388" y="355" type="curve" smooth="yes"/>
      <point x="388" y="115"/>
      <point x="328" y="0"/>
      <point x="196" y="0" type="curve" smooth="yes"/>
      <point x="47" y="0" type="line"/>
      <point x="47" y="311" type="line"/>
      <point x="15" y="311" type="line"/>
      <point x="15" y="421" type="line"/>
      <point x="47" y="421" type="line"/>
      <point x="47" y="700" type="line"/>
      <point x="208" y="700" type="line" smooth="yes"/>
      <point x="349" y="700"/>
      <point x="388" y="572"/>
    </contour>
    <contour>
      <point x="244" y="353" type="curve" smooth="yes"/>
      <point x="244" y="565"/>
      <point x="231" y="588"/>
      <point x="196" y="588" type="curve" smooth="yes"/>
      <point x="179" y="588" type="line"/>
      <point x="179" y="421" type="line"/>
      <point x="212" y="421" type="line"/>
      <point x="212" y="311" type="line"/>
      <point x="179" y="311" type="line"/>
      <point x="179" y="111" type="line"/>
      <point x="194" y="111" type="line" smooth="yes"/>
      <point x="229" y="111"/>
      <point x="244" y="139"/>
    </contour>
  </outline>
</glyph>
<glyph name="Oslash" format="1">
  <advance width="399"/>
  <unicode hex="00D8"/>
  <outline>
    <contour>
      <point x="387" y="750" type="line"/>
      <point x="342" y="612" type="line"/>
      <point x="366" y="554"/>
      <point x="377" y="469"/>
      <point x="377" y="351" type="curve" smooth="yes"/>
      <point x="377" y="91"/>
      <point x="323" y="-11"/>
      <point x="198" y="-11" type="curve" smooth="yes"/>
      <point x="181" y="-11"/>
      <point x="166" y="-9"/>
      <point x="152" y="-5" type="curve"/>
      <point x="138" y="-50" type="line"/>
      <point x="12" y="-50" type="line"/>
      <point x="56" y="87" type="line"/>
      <point x="33" y="145"/>
      <point x="22" y="230"/>
      <point x="22" y="349" type="curve" smooth="yes"/>
      <point x="22" y="609"/>
      <point x="76" y="711"/>
      <point x="200" y="711" type="curve" smooth="yes"/>
      <point x="217" y="711"/>
      <point x="233" y="709"/>
      <point x="247" y="705" type="curve"/>
      <point x="261" y="750" type="line"/>
    </contour>
    <contour>
      <point x="233" y="349" type="curve" smooth="yes"/>
      <point x="233" y="561"/>
      <point x="226" y="592"/>
      <point x="199" y="592" type="curve" smooth="yes"/>
      <point x="172" y="592"/>
      <point x="166" y="563"/>
      <point x="166" y="351" type="curve" smooth="yes"/>
      <point x="166" y="139"/>
      <point x="173" y="108"/>
      <point x="199" y="108" type="curve" smooth="yes"/>
      <point x="226" y="108"/>
      <point x="233" y="137"/>
    </contour>
  </outline>
</glyph>
<glyph name="Thorn" format="1">
  <advance width="374"/>
  <unicode hex="00DE"/>
  <outline>
    <contour>
      <point x="364" y="371" type="curve" smooth="yes"/>
      <point x="364" y="217"/>
      <point x="291" y="155"/>
      <point x="192" y="155" type="curve" smooth="yes"/>
      <point x="169" y="155" type="line"/>
      <point x="169" y="0" type="line"/>
      <point x="32" y="0" type="line"/>
      <point x="32" y="700" type="line"/>
      <point x="169" y="700" type="line"/>
      <point x="169" y="575" type="line"/>
      <point x="203" y="575" type="line" smooth="yes"/>
      <point x="288" y="575"/>
      <point x="364" y="525"/>
    </contour>
    <contour>
      <point x="224" y="366" type="curve" smooth="yes"/>
      <point x="224" y="443"/>
      <point x="215" y="467"/>
      <point x="183" y="467" type="curve" smooth="yes"/>
      <point x="169" y="467" type="line"/>
      <point x="169" y="264" type="line"/>
      <point x="181" y="264" type="line" smooth="yes"/>
      <point x="214" y="264"/>
      <point x="224" y="293"/>
    </contour>
  </outline>
</glyph>
<glyph name="germandbls" format="1">
  <advance width="387"/>
  <unicode hex="00DF"/>
  <outline>
    <contour>
      <point x="368" y="226" type="curve" smooth="yes"/>
      <point x="368" y="68"/>
      <point x="319" y="0"/>
      <point x="186" y="0" type="curve" smooth="yes"/>
      <point x="181" y="0" type="line"/>
      <point x="181" y="112" type="line"/>
      <point x="184" y="112" type="line" smooth="yes"/>
      <point x="218" y="112"/>
      <point x="230" y="128"/>
      <point x="230" y="219" type="curve" smooth="yes"/>
      <point x="230" y="326"/>
      <point x="216" y="342"/>
      <point x="184" y="342" type="curve" smooth="yes"/>
      <point x="181" y="342" type="line"/>
      <point x="181" y="453" type="line"/>
      <point x="185" y="453" type="line" smooth="yes"/>
      <point x="201" y="453"/>
      <point x="206" y="463"/>
      <point x="206" y="534" type="curve" smooth="yes"/>
      <point x="206" y="598"/>
      <point x="201" y="617"/>
      <point x="180" y="617" type="curve" smooth="yes"/>
      <point x="158" y="617"/>
      <point x="154" y="601"/>
      <point x="154" y="557" type="curve" smooth="yes"/>
      <point x="154" y="-145" type="line"/>
      <point x="26" y="-193" type="line"/>
      <point x="26" y="551" type="line" smooth="yes"/>
      <point x="26" y="672"/>
      <point x="96" y="726"/>
      <point x="187" y="726" type="curve" smooth="yes"/>
      <point x="282" y="726"/>
      <point x="339" y="660"/>
      <point x="339" y="549" type="curve" smooth="yes"/>
      <point x="339" y="468"/>
      <point x="314" y="432"/>
      <point x="288" y="403" type="curve"/>
      <point x="332" y="379"/>
      <point x="368" y="340"/>
    </contour>
  </outline>
</glyph>
<glyph name="ae" format="1">
  <advance width="510"/>
  <unicode hex="00E6"/>
  <outline>
    <contour>
      <point x="492" y="225" type="curve"/>
      <point x="309" y="225" type="line"/>
      <point x="310" y="115"/>
      <point x="320" y="94"/>
      <point x="341" y="94" type="curve" smooth="yes"/>
      <point x="358" y="94"/>
      <point x="364" y="109"/>
      <point x="376" y="173" type="curve"/>
      <point x="489" y="144" type="line"/>
      <point x="465" y="53"/>
      <point x="432" y="-11"/>
      <point x="336" y="-11" type="curve" smooth="yes"/>
      <point x="292" y="-11"/>
      <point x="262" y="9"/>
      <point x="244" y="37" type="curve"/>
      <point x="224" y="12"/>
      <point x="186" y="-11"/>
      <point x="146" y="-11" type="curve" smooth="yes"/>
      <point x="47" y="-11"/>
      <point x="14" y="40"/>
      <point x="14" y="162" type="curve" smooth="yes"/>
      <point x="14" y="280"/>
      <point x="51" y="338"/>
      <point x="134" y="338" type="curve" smooth="yes"/>
      <point x="159" y="338"/>
      <point x="177" y="332"/>
      <point x="190" y="324" type="curve"/>
      <point x="190" y="381" type="line" smooth="yes"/>
      <point x="190" y="410"/>
      <point x="183" y="422"/>
      <point x="158" y="422" type="curve" smooth="yes"/>
      <point x="131" y="422"/>
      <point x="103" y="408"/>
      <point x="66" y="381" type="curve"/>
      <point x="26" y="477" type="line"/>
      <point x="66" y="509"/>
      <point x="122" y="536"/>
      <point x="175" y="536" type="curve" smooth="yes"/>
      <point x="226" y="536"/>
      <point x="250" y="512"/>
      <point x="259" y="486" type="curve"/>
      <point x="274" y="513"/>
      <point x="303" y="536"/>
      <point x="347" y="536" type="curve" smooth="yes"/>
      <point x="444" y="536"/>
      <point x="492" y="445"/>
      <point x="492" y="264" type="curve" smooth="yes"/>
      <point x="492" y="258"/>
      <point x="492" y="234"/>
    </contour>
    <contour>
      <point x="370" y="316" type="line"/>
      <point x="368" y="409"/>
      <point x="360" y="436"/>
      <point x="340" y="436" type="curve" smooth="yes"/>
      <point x="320" y="436"/>
      <point x="312" y="416"/>
      <point x="309" y="316" type="curve"/>
    </contour>
    <contour>
      <point x="203" y="105" type="curve"/>
      <point x="195" y="137"/>
      <point x="191" y="185"/>
      <point x="190" y="234" type="curve"/>
      <point x="183" y="239"/>
      <point x="177" y="241"/>
      <point x="164" y="241" type="curve" smooth="yes"/>
      <point x="146" y="241"/>
      <point x="138" y="225"/>
      <point x="138" y="164" type="curve" smooth="yes"/>
      <point x="138" y="106"/>
      <point x="148" y="90"/>
      <point x="170" y="90" type="curve" smooth="yes"/>
      <point x="181" y="90"/>
      <point x="194" y="96"/>
    </contour>
  </outline>
</glyph>
<glyph name="ccedilla" format="1">
  <advance width="339"/>
  <unicode hex="00E7"/>
  <outline>
    <contour>
      <point x="325" y="172" type="line"/>
      <point x="310" y="53"/>
      <point x="266" y="-7"/>
      <point x="184" y="-11" type="curve"/>
      <point x="171" y="-48" type="line"/>
      <point x="180" y="-43"/>
      <point x="195" y="-39"/>
      <point x="214" y="-39" type="curve" smooth="yes"/>
      <point x="244" y="-39"/>
      <point x="276" y="-65"/>
      <point x="276" y="-113" type="curve" smooth="yes"/>
      <point x="276" y="-167"/>
      <point x="234" y="-193"/>
      <point x="177" y="-193" type="curve" smooth="yes"/>
      <point x="140" y="-193"/>
      <point x="104" y="-179"/>
      <point x="80" y="-162" type="curve"/>
      <point x="100" y="-126" type="line"/>
      <point x="127" y="-142"/>
      <point x="142" y="-148"/>
      <point x="165" y="-148" type="curve" smooth="yes"/>
      <point x="187" y="-148"/>
      <point x="203" y="-134"/>
      <point x="203" y="-114" type="curve" smooth="yes"/>
      <point x="203" y="-94"/>
      <point x="190" y="-87"/>
      <point x="178" y="-87" type="curve" smooth="yes"/>
      <point x="168" y="-87"/>
      <point x="158" y="-91"/>
      <point x="149" y="-98" type="curve"/>
      <point x="115" y="-75" type="line"/>
      <point x="139" y="-7" type="line"/>
      <point x="66" y="10"/>
      <point x="19" y="84"/>
      <point x="19" y="259" type="curve" smooth="yes"/>
      <point x="19" y="463"/>
      <point x="74" y="536"/>
      <point x="178" y="536" type="curve" smooth="yes"/>
      <point x="275" y="536"/>
      <point x="312" y="461"/>
      <point x="323" y="353" type="curve"/>
      <point x="204" y="330" type="line"/>
      <point x="200" y="403"/>
      <point x="195" y="423"/>
      <point x="177" y="423" type="curve" smooth="yes"/>
      <point x="153" y="423"/>
      <point x="148" y="395"/>
      <point x="148" y="261" type="curve" smooth="yes"/>
      <point x="148" y="130"/>
      <point x="153" y="102"/>
      <point x="177" y="102" type="curve" smooth="yes"/>
      <point x="194" y="102"/>
      <point x="199" y="118"/>
      <point x="208" y="202" type="curve"/>
    </contour>
  </outline>
</glyph>
<glyph name="eth" format="1">
  <advance width="353"/>
  <unicode hex="00F0"/>
  <outline>
    <contour>
      <point x="335" y="267" type="curve" smooth="yes"/>
      <point x="335" y="73"/>
      <point x="293" y="-11"/>
      <point x="175" y="-11" type="curve" smooth="yes"/>
      <point x="65" y="-11"/>
      <point x="19" y="83"/>
      <point x="19" y="235" type="curve" smooth="yes"/>
      <point x="19" y="383"/>
      <point x="62" y="486"/>
      <point x="159" y="486" type="curve" smooth="yes"/>
      <point x="197" y="486"/>
      <point x="221" y="471"/>
      <point x="239" y="439" type="curve"/>
      <point x="234" y="481"/>
      <point x="222" y="516"/>
      <point x="203" y="544" type="curve"/>
      <point x="165" y="505" type="line"/>
      <point x="113" y="557" type="line"/>
      <point x="150" y="595" type="line"/>
      <point x="130" y="606"/>
      <point x="106" y="614"/>
      <point x="79" y="618" type="curve"/>
      <point x="79" y="711" type="line"/>
      <point x="137" y="708"/>
      <point x="183" y="692"/>
      <point x="218" y="666" type="curve"/>
      <point x="262" y="711" type="line"/>
      <point x="314" y="659" type="line"/>
      <point x="269" y="612" type="line"/>
      <point x="319" y="537"/>
      <point x="335" y="420"/>
    </contour>
    <contour>
      <point x="207" y="236" type="curve" smooth="yes"/>
      <point x="207" y="350"/>
      <point x="201" y="374"/>
      <point x="177" y="374" type="curve" smooth="yes"/>
      <point x="152" y="374"/>
      <point x="148" y="347"/>
      <point x="148" y="239" type="curve" smooth="yes"/>
      <point x="148" y="128"/>
      <point x="151" y="101"/>
      <point x="178" y="101" type="curve" smooth="yes"/>
      <point x="202" y="101"/>
      <point x="207" y="128"/>
    </contour>
  </outline>
</glyph>
<glyph name="oslash" format="1">
  <advance width="353"/>
  <unicode hex="00F8"/>
  <outline>
    <contour>
      <point x="345" y="575" type="line"/>
      <point x="302" y="461" type="line"/>
      <point x="325" y="415"/>
      <point x="335" y="349"/>
      <point x="335" y="264" type="curve" smooth="yes"/>
      <point x="335" y="85"/>
      <point x="293" y="-11"/>
      <point x="175" y="-11" type="curve" smooth="yes"/>
      <point x="162" y="-11"/>
      <point x="150" y="-10"/>
      <point x="138" y="-7" type="curve"/>
      <point x="124" y="-50" type="line"/>
      <point x="9" y="-50" type="line"/>
      <point x="52" y="64" type="line"/>
      <point x="30" y="109"/>
      <point x="19" y="175"/>
      <point x="19" y="260" type="curve" smooth="yes"/>
      <point x="19" y="433"/>
      <point x="55" y="536"/>
      <point x="179" y="536" type="curve" smooth="yes"/>
      <point x="192" y="536"/>
      <point x="204" y="535"/>
      <point x="216" y="532" type="curve"/>
      <point x="230" y="575" type="line"/>
    </contour>
    <contour>
      <point x="207" y="261" type="curve" smooth="yes"/>
      <point x="207" y="395"/>
      <point x="201" y="424"/>
      <point x="177" y="424" type="curve" smooth="yes"/>
      <point x="152" y="424"/>
      <point x="148" y="391"/>
      <point x="148" y="264" type="curve" smooth="yes"/>
      <point x="148" y="134"/>
      <point x="151" y="101"/>
      <point x="178" y="101" type="curve" smooth="yes"/>
      <point x="202" y="101"/>
      <point x="207" y="134"/>
    </contour>
  </outline>
</glyph>
<glyph name="Lslash" format="1">
  <advance width="327"/>
  <unicode hex="0141"/>
  <outline>
    <contour>
      <point x="312" y="0" type="line"/>
      <point x="47" y="0" type="line"/>
      <point x="47" y="226" type="line"/>
      <point x="20" y="203" type="line"/>
      <point x="20" y="340" type="line"/>
      <point x="47" y="363" type="line"/>
      <point x="47" y="700" type="line"/>
      <point x="182" y="700" type="line"/>
      <point x="182" y="467" type="line"/>
      <point x="242" y="518" type="line"/>
      <point x="242" y="381" type="line"/>
      <point x="182" y="330" type="line"/>
      <point x="182" y="124" type="line"/>
      <point x="312" y="124" type="line"/>
    </contour>
  </outline>
</glyph>
<glyph name="lslash" format="1">
  <advance width="212"/>
  <unicode hex="0142"/>
  <outline>
    <contour>
      <point x="199" y="361" type="line"/>
      <point x="167" y="332" type="line"/>
      <point x="167" y="0" type="line"/>
      <point x="45" y="0" type="line"/>
      <point x="45" y="228" type="line"/>
      <point x="13" y="200" type="line"/>
      <point x="13" y="329" type="line"/>
      <point x="45" y="358" type="line"/>
      <point x="45" y="681" type="line"/>
      <point x="167" y="729" type="line"/>
      <point x="167" y="461" type="line"/>
      <point x="199" y="490" type="line"/>
    </contour>
  </outline>
</glyph>
<glyph name="OE" format="1">
  <advance width="538"/>
  <unicode hex="0152"/>
  <outline>
    <contour>
      <point x="520" y="0" type="line"/>
      <point x="280" y="0" type="line"/>
      <point x="280" y="47" type="line"/>
      <point x="262" y="10"/>
      <point x="236" y="-11"/>
      <point x="188" y="-11" type="curve" smooth="yes"/>
      <point x="78" y="-11"/>
      <point x="22" y="89"/>
      <point x="22" y="349" type="curve" smooth="yes"/>
      <point x="22" y="609"/>
      <point x="81" y="711"/>
      <point x="190" y="711" type="curve" smooth="yes"/>
      <point x="235" y="711"/>
      <point x="265" y="690"/>
      <point x="280" y="654" type="curve"/>
      <point x="280" y="700" type="line"/>
      <point x="514" y="700" type="line"/>
      <point x="514" y="576" type="line"/>
      <point x="370" y="576" type="line"/>
      <point x="370" y="431" type="line"/>
      <point x="480" y="431" type="line"/>
      <point x="480" y="307" type="line"/>
      <point x="370" y="307" type="line"/>
      <point x="370" y="124" type="line"/>
      <point x="520" y="124" type="line"/>
    </contour>
    <contour>
      <point x="233" y="349" type="curve" smooth="yes"/>
      <point x="233" y="561"/>
      <point x="226" y="592"/>
      <point x="199" y="592" type="curve" smooth="yes"/>
      <point x="172" y="592"/>
      <point x="166" y="563"/>
      <point x="166" y="351" type="curve" smooth="yes"/>
      <point x="166" y="139"/>
      <point x="173" y="108"/>
      <point x="199" y="108" type="curve" smooth="yes"/>
      <point x="226" y="108"/>
      <point x="233" y="137"/>
    </contour>
  </outline>
</glyph>
<glyph name="oe" format="1">
  <advance width="530"/>
  <unicode hex="0153"/>
  <outline>
    <contour>
      <point x="511" y="225" type="curve"/>
      <point x="328" y="225" type="line"/>
      <point x="329" y="115"/>
      <point x="339" y="94"/>
      <point x="360" y="94" type="curve" smooth="yes"/>
      <point x="377" y="94"/>
      <point x="383" y="109"/>
      <point x="395" y="173" type="curve"/>
      <point x="508" y="144" type="line"/>
      <point x="484" y="53"/>
      <point x="451" y="-11"/>
      <point x="355" y="-11" type="curve" smooth="yes"/>
      <point x="311" y="-11"/>
      <point x="281" y="17"/>
      <point x="267" y="45" type="curve"/>
      <point x="251" y="16"/>
      <point x="223" y="-11"/>
      <point x="175" y="-11" type="curve" smooth="yes"/>
      <point x="65" y="-11"/>
      <point x="19" y="82"/>
      <point x="19" y="260" type="curve" smooth="yes"/>
      <point x="19" y="433"/>
      <point x="55" y="536"/>
      <point x="179" y="536" type="curve" smooth="yes"/>
      <point x="227" y="536"/>
      <point x="256" y="508"/>
      <point x="270" y="480" type="curve"/>
      <point x="286" y="509"/>
      <point x="314" y="536"/>
      <point x="361" y="536" type="curve" smooth="yes"/>
      <point x="464" y="536"/>
      <point x="511" y="445"/>
      <point x="511" y="264" type="curve" smooth="yes"/>
      <point x="511" y="258"/>
      <point x="511" y="234"/>
    </contour>
    <contour>
      <point x="389" y="316" type="line"/>
      <point x="387" y="409"/>
      <point x="379" y="436"/>
      <point x="359" y="436" type="curve" smooth="yes"/>
      <point x="339" y="436"/>
      <point x="331" y="416"/>
      <point x="328" y="316" type="curve"/>
    </contour>
    <contour>
      <point x="207" y="261" type="curve" smooth="yes"/>
      <point x="207" y="395"/>
      <point x="201" y="424"/>
      <point x="177" y="424" type="curve" smooth="yes"/>
      <point x="152" y="424"/>
      <point x="148" y="391"/>
      <point x="148" y="264" type="curve" smooth="yes"/>
      <point x="148" y="134"/>
      <point x="151" y="101"/>
      <point x="178" y="101" type="curve" smooth="yes"/>
      <point x="202" y="101"/>
      <point x="207" y="134"/>
    </contour>
  </outline>
</glyph>
<glyph name="florin" format="1">
  <advance width="282"/>
  <unicode hex="0192"/>
  <outline>
    <contour>
      <point x="263" y="599" type="line"/>
      <point x="251" y="603"/>
      <point x="234" y="605"/>
      <point x="220" y="605" type="curve" smooth="yes"/>
      <point x="196" y="605"/>
      <point x="186" y="593"/>
      <point x="186" y="570" type="curve" smooth="yes"/>
      <point x="186" y="525" type="line"/>
      <point x="246" y="525" type="line"/>
      <point x="246" y="414" type="line"/>
      <point x="186" y="414" type="line"/>
      <point x="186" y="-145" type="line"/>
      <point x="58" y="-193" type="line"/>
      <point x="58" y="414" type="line"/>
      <point x="21" y="414" type="line"/>
      <point x="21" y="525" type="line"/>
      <point x="58" y="525" type="line"/>
      <point x="58" y="589" type="line" smooth="yes"/>
      <point x="58" y="671"/>
      <point x="107" y="711"/>
      <point x="183" y="711" type="curve" smooth="yes"/>
      <point x="224" y="711"/>
      <point x="239" y="708"/>
      <point x="263" y="701" type="curve"/>
    </contour>
  </outline>
</glyph>
<glyph name="circumflex" format="1">
  <advance width="330"/>
  <unicode hex="02C6"/>
  <outline>
    <contour>
      <point x="298" y="585" type="line"/>
      <point x="208" y="585" type="line"/>
      <point x="164" y="653" type="line"/>
      <point x="120" y="585" type="line"/>
      <point x="32" y="585" type="line"/>
      <point x="119" y="745" type="line"/>
      <point x="211" y="745" type="line"/>
    </contour>
  </outline>
</glyph>
<glyph name="caron" format="1">
  <advance width="330"/>
  <unicode hex="02C7"/>
  <outline>
    <contour>
      <point x="298" y="745" type="line"/>
      <point x="211" y="585" type="line"/>
      <point x="119" y="585" type="line"/>
      <point x="32" y="745" type="line"/>
      <point x="122" y="745" type="line"/>
      <point x="166" y="677" type="line"/>
      <point x="210" y="745" type="line"/>
    </contour>
  </outline>
</glyph>
<glyph name="breve" format="1">
  <advance width="330"/>
  <unicode hex="02D8"/>
  <outline>
    <contour>
      <point x="305" y="730" type="line"/>
      <point x="300" y="630"/>
      <point x="250" y="585"/>
      <point x="166" y="585" type="curve" smooth="yes"/>
      <point x="85" y="585"/>
      <point x="34" y="630"/>
      <point x="29" y="730" type="curve"/>
      <point x="106" y="730" type="line"/>
      <point x="112" y="688"/>
      <point x="127" y="667"/>
      <point x="168" y="667" type="curve" smooth="yes"/>
      <point x="206" y="667"/>
      <point x="222" y="688"/>
      <point x="228" y="730" type="curve"/>
    </contour>
  </outline>
</glyph>
<glyph name="dotaccent" format="1">
  <advance width="330"/>
  <unicode hex="02D9"/>
  <outline>
    <contour>
      <point x="234" y="650" type="curve" smooth="yes"/>
      <point x="234" y="612"/>
      <point x="203" y="581"/>
      <point x="165" y="581" type="curve" smooth="yes"/>
      <point x="126" y="581"/>
      <point x="96" y="612"/>
      <point x="96" y="650" type="curve" smooth="yes"/>
      <point x="96" y="688"/>
      <point x="126" y="719"/>
      <point x="165" y="719" type="curve" smooth="yes"/>
      <point x="203" y="719"/>
      <point x="234" y="688"/>
    </contour>
  </outline>
</glyph>
<glyph name="ring" format="1">
  <advance width="330"/>
  <unicode hex="02DA"/>
  <outline>
    <contour>
      <point x="269" y="688" type="curve" smooth="yes"/>
      <point x="269" y="628"/>
      <point x="225" y="585"/>
      <point x="165" y="585" type="curve" smooth="yes"/>
      <point x="105" y="585"/>
      <point x="61" y="628"/>
      <point x="61" y="688" type="curve" smooth="yes"/>
      <point x="61" y="748"/>
      <point x="105" y="792"/>
      <point x="165" y="792" type="curve" smooth="yes"/>
      <point x="225" y="792"/>
      <point x="269" y="748"/>
    </contour>
    <contour>
      <point x="205" y="688" type="curve" smooth="yes"/>
      <point x="205" y="712"/>
      <point x="187" y="731"/>
      <point x="165" y="731" type="curve" smooth="yes"/>
      <point x="143" y="731"/>
      <point x="125" y="712"/>
      <point x="125" y="688" type="curve" smooth="yes"/>
      <point x="125" y="664"/>
      <point x="143" y="645"/>
      <point x="165" y="645" type="curve" smooth="yes"/>
      <point x="187" y="645"/>
      <point x="205" y="664"/>
    </contour>
  </outline>
</glyph>
<glyph name="ogonek" format="1">
  <advance width="330"/>
  <unicode hex="02DB"/>
  <outline>
    <contour>
      <point x="266" y="-161" type="line"/>
      <point x="236" y="-180"/>
      <point x="206" y="-193"/>
      <point x="164" y="-193" type="curve" smooth="yes"/>
      <point x="115" y="-193"/>
      <point x="86" y="-166"/>
      <point x="86" y="-120" type="curve" smooth="yes"/>
      <point x="86" y="-79"/>
      <point x="106" y="-45"/>
      <point x="146" y="0" type="curve"/>
      <point x="201" y="0" type="line"/>
      <point x="174" y="-48"/>
      <point x="164" y="-77"/>
      <point x="164" y="-106" type="curve" smooth="yes"/>
      <point x="164" y="-130"/>
      <point x="174" y="-143"/>
      <point x="193" y="-143" type="curve" smooth="yes"/>
      <point x="211" y="-143"/>
      <point x="230" y="-137"/>
      <point x="250" y="-125" type="curve"/>
    </contour>
  </outline>
</glyph>
<glyph name="tilde" format="1">
  <advance width="330"/>
  <unicode hex="02DC"/>
  <outline>
    <contour>
      <point x="319" y="718" type="line"/>
      <point x="319" y="618"/>
      <point x="279" y="582"/>
      <point x="229" y="582" type="curve" smooth="yes"/>
      <point x="198" y="582"/>
      <point x="178" y="591"/>
      <point x="151" y="611" type="curve" smooth="yes"/>
      <point x="139" y="620"/>
      <point x="130" y="628"/>
      <point x="119" y="628" type="curve" smooth="yes"/>
      <point x="104" y="628"/>
      <point x="98" y="619"/>
      <point x="96" y="585" type="curve"/>
      <point x="11" y="585" type="line"/>
      <point x="11" y="685"/>
      <point x="51" y="721"/>
      <point x="101" y="721" type="curve" smooth="yes"/>
      <point x="132" y="721"/>
      <point x="152" y="712"/>
      <point x="179" y="692" type="curve" smooth="yes"/>
      <point x="191" y="683"/>
      <point x="200" y="675"/>
      <point x="211" y="675" type="curve" smooth="yes"/>
      <point x="226" y="675"/>
      <point x="232" y="684"/>
      <point x="234" y="718" type="curve"/>
    </contour>
  </outline>
</glyph>
<glyph name="hungarumlaut" format="1">
  <advance width="330"/>
  <unicode hex="02DD"/>
  <outline>
    <contour>
      <point x="360" y="745" type="line"/>
      <point x="233" y="585" type="line"/>
      <point x="155" y="585" type="line"/>
      <point x="227" y="745" type="line"/>
    </contour>
    <contour>
      <point x="200" y="745" type="line"/>
      <point x="73" y="585" type="line"/>
      <point x="-5" y="585" type="line"/>
      <point x="67" y="745" type="line"/>
    </contour>
  </outline>
</glyph>
<glyph name="endash" format="1">
  <advance width="337"/>
  <unicode hex="2013"/>
  <outline>
    <contour>
      <point x="308" y="305" type="line"/>
      <point x="29" y="305" type="line"/>
      <point x="29" y="427" type="line"/>
      <point x="308" y="427" type="line"/>
    </contour>
  </outline>
</glyph>
<glyph name="emdash" format="1">
  <advance width="407"/>
  <unicode hex="2014"/>
  <outline>
    <contour>
      <point x="378" y="305" type="line"/>
      <point x="29" y="305" type="line"/>
      <point x="29" y="427" type="line"/>
      <point x="378" y="427" type="line"/>
    </contour>
  </outline>
</glyph>
<glyph name="quoteleft" format="1">
  <advance width="215"/>
  <unicode hex="2018"/>
  <unicode hex="02BB"/>
  <outline>
    <contour>
      <point x="176" y="700" type="line"/>
      <point x="161" y="462" type="line"/>
      <point x="28" y="462" type="line"/>
      <point x="101" y="700" type="line"/>
    </contour>
  </outline>
</glyph>
<glyph name="quoteright" format="1">
  <advance width="215"/>
  <unicode hex="2019"/>
  <unicode hex="02BC"/>
  <outline>
    <contour>
      <point x="187" y="700" type="line"/>
      <point x="114" y="462" type="line"/>
      <point x="39" y="462" type="line"/>
      <point x="54" y="700" type="line"/>
    </contour>
  </outline>
</glyph>
<glyph name="quotesinglbase" format="1">
  <advance width="215"/>
  <unicode hex="201A"/>
  <outline>
    <contour>
      <point x="187" y="137" type="line"/>
      <point x="114" y="-101" type="line"/>
      <point x="39" y="-101" type="line"/>
      <point x="54" y="137" type="line"/>
    </contour>
  </outline>
</glyph>
<glyph name="quotedblleft" format="1">
  <advance width="395"/>
  <unicode hex="201C"/>
  <outline>
    <contour>
      <point x="356" y="700" type="line"/>
      <point x="341" y="462" type="line"/>
      <point x="208" y="462" type="line"/>
      <point x="281" y="700" type="line"/>
    </contour>
    <contour>
      <point x="176" y="700" type="line"/>
      <point x="161" y="462" type="line"/>
      <point x="28" y="462" type="line"/>
      <point x="101" y="700" type="line"/>
    </contour>
  </outline>
</glyph>
<glyph name="quotedblright" format="1">
  <advance width="395"/>
  <unicode hex="201D"/>
  <outline>
    <contour>
      <point x="367" y="700" type="line"/>
      <point x="294" y="462" type="line"/>
      <point x="219" y="462" type="line"/>
      <point x="234" y="700" type="line"/>
    </contour>
    <contour>
      <point x="187" y="700" type="line"/>
      <point x="114" y="462" type="line"/>
      <point x="39" y="462" type="line"/>
      <point x="54" y="700" type="line"/>
    </contour>
  </outline>
</glyph>
<glyph name="quotedblbase" format="1">
  <advance width="395"/>
  <unicode hex="201E"/>
  <outline>
    <contour>
      <point x="367" y="137" type="line"/>
      <point x="294" y="-101" type="line"/>
      <point x="219" y="-101" type="line"/>
      <point x="234" y="137" type="line"/>
    </contour>
    <contour>
      <point x="187" y="137" type="line"/>
      <point x="114" y="-101" type="line"/>
      <point x="39" y="-101" type="line"/>
      <point x="54" y="137" type="line"/>
    </contour>
  </outline>
</glyph>
<glyph name="dagger" format="1">
  <advance width="366"/>
  <unicode hex="2020"/>
  <outline>
    <contour>
      <point x="350" y="367" type="line"/>
      <point x="249" y="367" type="line"/>
      <point x="249" y="-100" type="line"/>
      <point x="117" y="-100" type="line"/>
      <point x="117" y="367" type="line"/>
      <point x="16" y="367" type="line"/>
      <point x="16" y="494" type="line"/>
      <point x="117" y="494" type="line"/>
      <point x="117" y="700" type="line"/>
      <point x="249" y="700" type="line"/>
      <point x="249" y="494" type="line"/>
      <point x="350" y="494" type="line"/>
    </contour>
  </outline>
</glyph>
<glyph name="daggerdbl" format="1">
  <advance width="366"/>
  <unicode hex="2021"/>
  <outline>
    <contour>
      <point x="350" y="108" type="line"/>
      <point x="245" y="108" type="line"/>
      <point x="245" y="-100" type="line"/>
      <point x="121" y="-100" type="line"/>
      <point x="121" y="108" type="line"/>
      <point x="16" y="108" type="line"/>
      <point x="16" y="230" type="line"/>
      <point x="121" y="230" type="line"/>
      <point x="121" y="372" type="line"/>
      <point x="16" y="372" type="line"/>
      <point x="16" y="494" type="line"/>
      <point x="121" y="494" type="line"/>
      <point x="121" y="700" type="line"/>
      <point x="245" y="700" type="line"/>
      <point x="245" y="494" type="line"/>
      <point x="350" y="494" type="line"/>
      <point x="350" y="372" type="line"/>
      <point x="245" y="372" type="line"/>
      <point x="245" y="230" type="line"/>
      <point x="350" y="230" type="line"/>
    </contour>
  </outline>
</glyph>
<glyph name="ellipsis" format="1">
  <advance width="624"/>
  <unicode hex="2026"/>
  <outline>
    <contour>
      <point x="598" y="66" type="curve" smooth="yes"/>
      <point x="598" y="21"/>
      <point x="567" y="-11"/>
      <point x="521" y="-11" type="curve" smooth="yes"/>
      <point x="475" y="-11"/>
      <point x="443" y="21"/>
      <point x="443" y="66" type="curve" smooth="yes"/>
      <point x="443" y="112"/>
      <point x="475" y="144"/>
      <point x="521" y="144" type="curve" smooth="yes"/>
      <point x="567" y="144"/>
      <point x="598" y="112"/>
    </contour>
    <contour>
      <point x="390" y="66" type="curve" smooth="yes"/>
      <point x="390" y="21"/>
      <point x="359" y="-11"/>
      <point x="313" y="-11" type="curve" smooth="yes"/>
      <point x="267" y="-11"/>
      <point x="235" y="21"/>
      <point x="235" y="66" type="curve" smooth="yes"/>
      <point x="235" y="112"/>
      <point x="267" y="144"/>
      <point x="313" y="144" type="curve" smooth="yes"/>
      <point x="359" y="144"/>
      <point x="390" y="112"/>
    </contour>
    <contour>
      <point x="182" y="66" type="curve" smooth="yes"/>
      <point x="182" y="21"/>
      <point x="151" y="-11"/>
      <point x="105" y="-11" type="curve" smooth="yes"/>
      <point x="59" y="-11"/>
      <point x="27" y="21"/>
      <point x="27" y="66" type="curve" smooth="yes"/>
      <point x="27" y="112"/>
      <point x="59" y="144"/>
      <point x="105" y="144" type="curve" smooth="yes"/>
      <point x="151" y="144"/>
      <point x="182" y="112"/>
    </contour>
  </outline>
</glyph>
<glyph name="perthousand" format="1">
  <advance width="1028"/>
  <unicode hex="2030"/>
  <outline>
    <contour>
      <point x="298" y="494" type="curve" smooth="yes"/>
      <point x="298" y="352"/>
      <point x="251" y="275"/>
      <point x="159" y="275" type="curve" smooth="yes"/>
      <point x="67" y="275"/>
      <point x="22" y="350"/>
      <point x="22" y="492" type="curve" smooth="yes"/>
      <point x="22" y="634"/>
      <point x="69" y="711"/>
      <point x="161" y="711" type="curve" smooth="yes"/>
      <point x="253" y="711"/>
      <point x="298" y="636"/>
    </contour>
    <contour>
      <point x="579" y="700" type="line"/>
      <point x="272" y="0" type="line"/>
      <point x="153" y="0" type="line"/>
      <point x="460" y="700" type="line"/>
    </contour>
    <contour>
      <point x="1015" y="208" type="curve" smooth="yes"/>
      <point x="1015" y="66"/>
      <point x="968" y="-11"/>
      <point x="876" y="-11" type="curve" smooth="yes"/>
      <point x="784" y="-11"/>
      <point x="739" y="64"/>
      <point x="739" y="206" type="curve" smooth="yes"/>
      <point x="739" y="348"/>
      <point x="786" y="425"/>
      <point x="878" y="425" type="curve" smooth="yes"/>
      <point x="970" y="425"/>
      <point x="1015" y="350"/>
    </contour>
    <contour>
      <point x="710" y="208" type="curve" smooth="yes"/>
      <point x="710" y="66"/>
      <point x="663" y="-11"/>
      <point x="571" y="-11" type="curve" smooth="yes"/>
      <point x="479" y="-11"/>
      <point x="434" y="64"/>
      <point x="434" y="206" type="curve" smooth="yes"/>
      <point x="434" y="348"/>
      <point x="481" y="425"/>
      <point x="573" y="425" type="curve" smooth="yes"/>
      <point x="665" y="425"/>
      <point x="710" y="350"/>
    </contour>
    <contour>
      <point x="181" y="492" type="curve" smooth="yes"/>
      <point x="181" y="585"/>
      <point x="178" y="609"/>
      <point x="160" y="609" type="curve" smooth="yes"/>
      <point x="142" y="609"/>
      <point x="139" y="587"/>
      <point x="139" y="494" type="curve" smooth="yes"/>
      <point x="139" y="401"/>
      <point x="143" y="377"/>
      <point x="161" y="377" type="curve" smooth="yes"/>
      <point x="179" y="377"/>
      <point x="181" y="399"/>
    </contour>
    <contour>
      <point x="898" y="206" type="curve" smooth="yes"/>
      <point x="898" y="299"/>
      <point x="895" y="323"/>
      <point x="877" y="323" type="curve" smooth="yes"/>
      <point x="859" y="323"/>
      <point x="856" y="301"/>
      <point x="856" y="208" type="curve" smooth="yes"/>
      <point x="856" y="115"/>
      <point x="860" y="91"/>
      <point x="878" y="91" type="curve" smooth="yes"/>
      <point x="896" y="91"/>
      <point x="898" y="113"/>
    </contour>
    <contour>
      <point x="593" y="206" type="curve" smooth="yes"/>
      <point x="593" y="299"/>
      <point x="590" y="323"/>
      <point x="572" y="323" type="curve" smooth="yes"/>
      <point x="554" y="323"/>
      <point x="551" y="301"/>
      <point x="551" y="208" type="curve" smooth="yes"/>
      <point x="551" y="115"/>
      <point x="555" y="91"/>
      <point x="573" y="91" type="curve" smooth="yes"/>
      <point x="591" y="91"/>
      <point x="593" y="113"/>
    </contour>
  </outline>
</glyph>
<glyph name="guilsinglleft" format="1">
  <advance width="261"/>
  <unicode hex="2039"/>
  <outline>
    <contour>
      <point x="235" y="0" type="line"/>
      <point x="113" y="0" type="line"/>
      <point x="13" y="262" type="line"/>
      <point x="113" y="525" type="line"/>
      <point x="235" y="525" type="line"/>
      <point x="140" y="263" type="line"/>
    </contour>
  </outline>
</glyph>
<glyph name="guilsinglright" format="1">
  <advance width="261"/>
  <unicode hex="203A"/>
  <outline>
    <contour>
      <point x="248" y="263" type="line"/>
      <point x="148" y="0" type="line"/>
      <point x="26" y="0" type="line"/>
      <point x="121" y="262" type="line"/>
      <point x="26" y="525" type="line"/>
      <point x="148" y="525" type="line"/>
    </contour>
  </outline>
</glyph>
<glyph name="fraction" format="1">
  <advance width="390"/>
  <unicode hex="2044"/>
  <outline>
    <contour>
      <point x="424" y="700" type="line"/>
      <point x="102" y="0" type="line"/>
      <point x="-34" y="0" type="line"/>
      <point x="288" y="700" type="line"/>
    </contour>
  </outline>
</glyph>
<glyph name="Euro" format="1">
  <advance width="363"/>
  <unicode hex="20AC"/>
  <outline>
    <contour>
      <point x="153" y="362" type="line"/>
      <point x="153" y="359"/>
      <point x="153" y="355"/>
      <point x="153" y="352" type="curve" smooth="yes"/>
      <point x="153" y="346"/>
      <point x="153" y="339"/>
      <point x="153" y="333" type="curve"/>
      <point x="256" y="333" type="line"/>
      <point x="256" y="243" type="line"/>
      <point x="154" y="243" type="line"/>
      <point x="157" y="126"/>
      <point x="167" y="108"/>
      <point x="189" y="108" type="curve" smooth="yes"/>
      <point x="207" y="108"/>
      <point x="216" y="131"/>
      <point x="220" y="218" type="curve"/>
      <point x="344" y="198" type="line"/>
      <point x="327" y="32"/>
      <point x="277" y="-11"/>
      <point x="187" y="-11" type="curve" smooth="yes"/>
      <point x="72" y="-11"/>
      <point x="21" y="85"/>
      <point x="21" y="348" type="curve" smooth="yes"/>
      <point x="21" y="609"/>
      <point x="71" y="711"/>
      <point x="189" y="711" type="curve" smooth="yes"/>
      <point x="292" y="711"/>
      <point x="335" y="637"/>
      <point x="342" y="501" type="curve"/>
      <point x="216" y="481" type="line"/>
      <point x="212" y="572"/>
      <point x="206" y="592"/>
      <point x="187" y="592" type="curve" smooth="yes"/>
      <point x="165" y="592"/>
      <point x="156" y="570"/>
      <point x="154" y="452" type="curve"/>
      <point x="256" y="452" type="line"/>
      <point x="256" y="362" type="line"/>
    </contour>
  </outline>
</glyph>
<glyph name="uni2117" format="1">
  <advance width="483"/>
  <unicode hex="2117"/>
  <outline>
    <contour>
      <point x="461" y="350" type="curve" smooth="yes"/>
      <point x="461" y="135"/>
      <point x="387" y="-11"/>
      <point x="241" y="-11" type="curve" smooth="yes"/>
      <point x="95" y="-11"/>
      <point x="22" y="135"/>
      <point x="22" y="350" type="curve" smooth="yes"/>
      <point x="22" y="565"/>
      <point x="95" y="711"/>
      <point x="241" y="711" type="curve" smooth="yes"/>
      <point x="387" y="711"/>
      <point x="461" y="565"/>
    </contour>
    <contour>
      <point x="401" y="350" type="curve" smooth="yes"/>
      <point x="401" y="527"/>
      <point x="356" y="655"/>
      <point x="241" y="655" type="curve" smooth="yes"/>
      <point x="126" y="655"/>
      <point x="82" y="527"/>
      <point x="82" y="350" type="curve" smooth="yes"/>
      <point x="82" y="173"/>
      <point x="126" y="45"/>
      <point x="241" y="45" type="curve" smooth="yes"/>
      <point x="356" y="45"/>
      <point x="401" y="173"/>
    </contour>
    <contour>
      <point x="348" y="433" type="curve" smooth="yes"/>
      <point x="348" y="345"/>
      <point x="306" y="309"/>
      <point x="250" y="309" type="curve" smooth="yes"/>
      <point x="237" y="309" type="line"/>
      <point x="237" y="150" type="line"/>
      <point x="159" y="150" type="line"/>
      <point x="159" y="549" type="line"/>
      <point x="256" y="549" type="line" smooth="yes"/>
      <point x="305" y="549"/>
      <point x="348" y="520"/>
    </contour>
    <contour>
      <point x="268" y="430" type="curve" smooth="yes"/>
      <point x="268" y="474"/>
      <point x="263" y="487"/>
      <point x="245" y="487" type="curve" smooth="yes"/>
      <point x="237" y="487" type="line"/>
      <point x="237" y="372" type="line"/>
      <point x="244" y="372" type="line" smooth="yes"/>
      <point x="262" y="372"/>
      <point x="268" y="388"/>
    </contour>
  </outline>
</glyph>
<glyph name="trademark" format="1">
  <advance width="488"/>
  <unicode hex="2122"/>
  <outline>
    <contour>
      <point x="192" y="629" type="line"/>
      <point x="141" y="629" type="line"/>
      <point x="141" y="301" type="line"/>
      <point x="62" y="301" type="line"/>
      <point x="62" y="629" type="line"/>
      <point x="11" y="629" type="line"/>
      <point x="11" y="700" type="line"/>
      <point x="192" y="700" type="line"/>
    </contour>
    <contour>
      <point x="463" y="301" type="line"/>
      <point x="394" y="301" type="line"/>
      <point x="394" y="383" type="line" smooth="yes"/>
      <point x="394" y="429"/>
      <point x="395" y="471"/>
      <point x="397" y="507" type="curve"/>
      <point x="391" y="475"/>
      <point x="378" y="422"/>
      <point x="367" y="379" type="curve" smooth="yes"/>
      <point x="345" y="289" type="line"/>
      <point x="322" y="379" type="line" smooth="yes"/>
      <point x="311" y="422"/>
      <point x="298" y="475"/>
      <point x="293" y="507" type="curve"/>
      <point x="294" y="472"/>
      <point x="296" y="428"/>
      <point x="296" y="383" type="curve" smooth="yes"/>
      <point x="296" y="301" type="line"/>
      <point x="226" y="301" type="line"/>
      <point x="226" y="700" type="line"/>
      <point x="298" y="700" type="line"/>
      <point x="319" y="610" type="line" smooth="yes"/>
      <point x="329" y="566"/>
      <point x="340" y="519"/>
      <point x="345" y="485" type="curve"/>
      <point x="349" y="519"/>
      <point x="361" y="567"/>
      <point x="371" y="611" type="curve" smooth="yes"/>
      <point x="391" y="700" type="line"/>
      <point x="463" y="700" type="line"/>
    </contour>
  </outline>
</glyph>
<glyph name="arrowleft" format="1">
  <advance width="380"/>
  <unicode hex="2190"/>
  <outline>
    <contour>
      <point x="360" y="292" type="line"/>
      <point x="200" y="292" type="line"/>
      <point x="208" y="258" type="line" smooth="yes"/>
      <point x="213" y="236"/>
      <point x="211" y="226"/>
      <point x="199" y="217" type="curve"/>
      <point x="189" y="211"/>
      <point x="176" y="211"/>
      <point x="161" y="224" type="curve" smooth="yes"/>
      <point x="10" y="354" type="line"/>
      <point x="161" y="484" type="line" smooth="yes"/>
      <point x="176" y="497"/>
      <point x="189" y="497"/>
      <point x="199" y="491" type="curve"/>
      <point x="211" y="482"/>
      <point x="213" y="472"/>
      <point x="208" y="450" type="curve" smooth="yes"/>
      <point x="200" y="416" type="line"/>
      <point x="360" y="416" type="line"/>
    </contour>
  </outline>
</glyph>
<glyph name="arrowup" format="1">
  <advance width="314"/>
  <unicode hex="2191"/>
  <outline>
    <contour>
      <point x="294" y="526" type="curve"/>
      <point x="285" y="514"/>
      <point x="275" y="512"/>
      <point x="253" y="517" type="curve" smooth="yes"/>
      <point x="219" y="525" type="line"/>
      <point x="219" y="0" type="line"/>
      <point x="95" y="0" type="line"/>
      <point x="95" y="525" type="line"/>
      <point x="61" y="517" type="line" smooth="yes"/>
      <point x="39" y="512"/>
      <point x="29" y="514"/>
      <point x="20" y="526" type="curve"/>
      <point x="14" y="536"/>
      <point x="14" y="549"/>
      <point x="27" y="564" type="curve" smooth="yes"/>
      <point x="157" y="715" type="line"/>
      <point x="287" y="564" type="line" smooth="yes"/>
      <point x="300" y="549"/>
      <point x="300" y="536"/>
    </contour>
  </outline>
</glyph>
<glyph name="arrowright" format="1">
  <advance width="380"/>
  <unicode hex="2192"/>
  <outline>
    <contour>
      <point x="370" y="354" type="line"/>
      <point x="219" y="224" type="line" smooth="yes"/>
      <point x="204" y="211"/>
      <point x="191" y="211"/>
      <point x="181" y="217" type="curve"/>
      <point x="169" y="226"/>
      <point x="167" y="236"/>
      <point x="172" y="258" type="curve" smooth="yes"/>
      <point x="180" y="292" type="line"/>
      <point x="20" y="292" type="line"/>
      <point x="20" y="416" type="line"/>
      <point x="180" y="416" type="line"/>
      <point x="172" y="450" type="line" smooth="yes"/>
      <point x="167" y="472"/>
      <point x="169" y="482"/>
      <point x="181" y="491" type="curve"/>
      <point x="191" y="497"/>
      <point x="204" y="497"/>
      <point x="219" y="484" type="curve" smooth="yes"/>
    </contour>
  </outline>
</glyph>
<glyph name="arrowdown" format="1">
  <advance width="314"/>
  <unicode hex="2193"/>
  <outline>
    <contour>
      <point x="294" y="174" type="curve"/>
      <point x="300" y="164"/>
      <point x="300" y="151"/>
      <point x="287" y="136" type="curve" smooth="yes"/>
      <point x="157" y="-15" type="line"/>
      <point x="27" y="136" type="line" smooth="yes"/>
      <point x="14" y="151"/>
      <point x="14" y="164"/>
      <point x="20" y="174" type="curve"/>
      <point x="29" y="186"/>
      <point x="39" y="188"/>
      <point x="61" y="183" type="curve" smooth="yes"/>
      <point x="95" y="175" type="line"/>
      <point x="95" y="700" type="line"/>
      <point x="219" y="700" type="line"/>
      <point x="219" y="175" type="line"/>
      <point x="253" y="183" type="line" smooth="yes"/>
      <point x="275" y="188"/>
      <point x="285" y="186"/>
    </contour>
  </outline>
</glyph>
<glyph name="arrowboth" format="1">
  <advance width="560"/>
  <unicode hex="2194"/>
  <outline>
    <contour>
      <point x="550" y="354" type="line"/>
      <point x="399" y="224" type="line" smooth="yes"/>
      <point x="384" y="211"/>
      <point x="371" y="211"/>
      <point x="361" y="217" type="curve"/>
      <point x="349" y="226"/>
      <point x="347" y="236"/>
      <point x="352" y="258" type="curve" smooth="yes"/>
      <point x="360" y="292" type="line"/>
      <point x="200" y="292" type="line"/>
      <point x="208" y="258" type="line" smooth="yes"/>
      <point x="213" y="236"/>
      <point x="211" y="226"/>
      <point x="199" y="217" type="curve"/>
      <point x="189" y="211"/>
      <point x="176" y="211"/>
      <point x="161" y="224" type="curve" smooth="yes"/>
      <point x="10" y="354" type="line"/>
      <point x="161" y="484" type="line" smooth="yes"/>
      <point x="176" y="497"/>
      <point x="189" y="497"/>
      <point x="199" y="491" type="curve"/>
      <point x="211" y="482"/>
      <point x="213" y="472"/>
      <point x="208" y="450" type="curve" smooth="yes"/>
      <point x="200" y="416" type="line"/>
      <point x="360" y="416" type="line"/>
      <point x="352" y="450" type="line" smooth="yes"/>
      <point x="347" y="472"/>
      <point x="349" y="482"/>
      <point x="361" y="491" type="curve"/>
      <point x="371" y="497"/>
      <point x="384" y="497"/>
      <point x="399" y="484" type="curve" smooth="yes"/>
    </contour>
  </outline>
</glyph>
<glyph name="arrowupdn" format="1">
  <advance width="314"/>
  <unicode hex="2195"/>
  <outline>
    <contour>
      <point x="294" y="174" type="curve"/>
      <point x="300" y="164"/>
      <point x="300" y="151"/>
      <point x="287" y="136" type="curve" smooth="yes"/>
      <point x="157" y="-15" type="line"/>
      <point x="27" y="136" type="line" smooth="yes"/>
      <point x="14" y="151"/>
      <point x="14" y="164"/>
      <point x="20" y="174" type="curve"/>
      <point x="29" y="186"/>
      <point x="39" y="188"/>
      <point x="61" y="183" type="curve" smooth="yes"/>
      <point x="95" y="175" type="line"/>
      <point x="95" y="525" type="line"/>
      <point x="61" y="517" type="line" smooth="yes"/>
      <point x="39" y="512"/>
      <point x="29" y="514"/>
      <point x="20" y="526" type="curve"/>
      <point x="14" y="536"/>
      <point x="14" y="549"/>
      <point x="27" y="564" type="curve" smooth="yes"/>
      <point x="157" y="715" type="line"/>
      <point x="287" y="564" type="line" smooth="yes"/>
      <point x="300" y="549"/>
      <point x="300" y="536"/>
      <point x="294" y="526" type="curve"/>
      <point x="285" y="514"/>
      <point x="275" y="512"/>
      <point x="253" y="517" type="curve" smooth="yes"/>
      <point x="219" y="525" type="line"/>
      <point x="219" y="175" type="line"/>
      <point x="253" y="183" type="line" smooth="yes"/>
      <point x="275" y="188"/>
      <point x="285" y="186"/>
    </contour>
  </outline>
</glyph>
<glyph name="radical" format="1">
  <advance width="380"/>
  <unicode hex="221A"/>
  <outline>
    <contour>
      <point x="377" y="700" type="line"/>
      <point x="245" y="0" type="line"/>
      <point x="103" y="0" type="line"/>
      <point x="8" y="340" type="line"/>
      <point x="141" y="340" type="line"/>
      <point x="151" y="286" type="line" smooth="yes"/>
      <point x="158" y="247"/>
      <point x="165" y="197"/>
      <point x="169" y="142" type="curve"/>
      <point x="171" y="198"/>
      <point x="179" y="271"/>
      <point x="186" y="321" type="curve" smooth="yes"/>
      <point x="239" y="700" type="line"/>
    </contour>
  </outline>
</glyph>
<glyph name="apple" format="1">
  <advance width="660"/>
  <unicode hex="F8FF"/>
  <outline>
    <contour>
      <point x="650" y="354" type="line"/>
      <point x="499" y="224" type="line" smooth="yes"/>
      <point x="484" y="211"/>
      <point x="471" y="211"/>
      <point x="461" y="217" type="curve"/>
      <point x="449" y="226"/>
      <point x="447" y="237"/>
      <point x="452" y="258" type="curve" smooth="yes"/>
      <point x="461" y="295" type="line"/>
      <point x="389" y="295" type="line"/>
      <point x="389" y="164" type="line"/>
      <point x="426" y="173" type="line" smooth="yes"/>
      <point x="448" y="178"/>
      <point x="458" y="176"/>
      <point x="467" y="164" type="curve"/>
      <point x="473" y="154"/>
      <point x="473" y="141"/>
      <point x="460" y="126" type="curve" smooth="yes"/>
      <point x="330" y="-25" type="line"/>
      <point x="200" y="126" type="line" smooth="yes"/>
      <point x="187" y="141"/>
      <point x="187" y="154"/>
      <point x="193" y="164" type="curve"/>
      <point x="202" y="176"/>
      <point x="212" y="178"/>
      <point x="234" y="173" type="curve" smooth="yes"/>
      <point x="271" y="164" type="line"/>
      <point x="271" y="295" type="line"/>
      <point x="199" y="295" type="line"/>
      <point x="208" y="258" type="line" smooth="yes"/>
      <point x="213" y="236"/>
      <point x="211" y="226"/>
      <point x="199" y="217" type="curve"/>
      <point x="189" y="211"/>
      <point x="176" y="211"/>
      <point x="161" y="224" type="curve" smooth="yes"/>
      <point x="10" y="354" type="line"/>
      <point x="161" y="484" type="line" smooth="yes"/>
      <point x="176" y="497"/>
      <point x="189" y="497"/>
      <point x="199" y="491" type="curve"/>
      <point x="211" y="482"/>
      <point x="213" y="472"/>
      <point x="208" y="450" type="curve" smooth="yes"/>
      <point x="199" y="413" type="line"/>
      <point x="271" y="413" type="line"/>
      <point x="271" y="536" type="line"/>
      <point x="234" y="527" type="line" smooth="yes"/>
      <point x="212" y="522"/>
      <point x="202" y="524"/>
      <point x="193" y="536" type="curve"/>
      <point x="187" y="546"/>
      <point x="187" y="559"/>
      <point x="200" y="574" type="curve" smooth="yes"/>
      <point x="330" y="725" type="line"/>
      <point x="460" y="574" type="line" smooth="yes"/>
      <point x="473" y="559"/>
      <point x="473" y="546"/>
      <point x="467" y="536" type="curve"/>
      <point x="458" y="524"/>
      <point x="447" y="522"/>
      <point x="426" y="527" type="curve" smooth="yes"/>
      <point x="389" y="536" type="line"/>
      <point x="389" y="413" type="line"/>
      <point x="461" y="413" type="line"/>
      <point x="452" y="450" type="line" smooth="yes"/>
      <point x="447" y="472"/>
      <point x="449" y="482"/>
      <point x="461" y="491" type="curve"/>
      <point x="471" y="497"/>
      <point x="484" y="497"/>
      <point x="499" y="484" type="curve" smooth="yes"/>
    </contour>
  </outline>
</glyph>
<glyph name="fi" format="1">
  <advance width="421"/>
  <unicode hex="FB01"/>
  <outline>
    <contour>
      <point x="400" y="655" type="curve" smooth="yes"/>
      <point x="400" y="614"/>
      <point x="372" y="585"/>
      <point x="330" y="585" type="curve" smooth="yes"/>
      <point x="288" y="585"/>
      <point x="260" y="614"/>
      <point x="260" y="655" type="curve" smooth="yes"/>
      <point x="260" y="697"/>
      <point x="288" y="726"/>
      <point x="330" y="726" type="curve" smooth="yes"/>
      <point x="372" y="726"/>
      <point x="400" y="697"/>
    </contour>
    <contour>
      <point x="243" y="609" type="line"/>
      <point x="232" y="613"/>
      <point x="220" y="615"/>
      <point x="206" y="615" type="curve" smooth="yes"/>
      <point x="186" y="615"/>
      <point x="176" y="603"/>
      <point x="176" y="580" type="curve" smooth="yes"/>
      <point x="176" y="525" type="line"/>
      <point x="229" y="525" type="line"/>
      <point x="229" y="411" type="line"/>
      <point x="176" y="411" type="line"/>
      <point x="176" y="0" type="line"/>
      <point x="51" y="0" type="line"/>
      <point x="51" y="411" type="line"/>
      <point x="14" y="411" type="line"/>
      <point x="14" y="525" type="line"/>
      <point x="51" y="525" type="line"/>
      <point x="51" y="604" type="line" smooth="yes"/>
      <point x="51" y="686"/>
      <point x="106" y="726"/>
      <point x="164" y="726" type="curve" smooth="yes"/>
      <point x="206" y="726"/>
      <point x="224" y="724"/>
      <point x="243" y="719" type="curve"/>
    </contour>
    <contour>
      <point x="394" y="0" type="line"/>
      <point x="266" y="0" type="line"/>
      <point x="266" y="525" type="line"/>
      <point x="394" y="525" type="line"/>
    </contour>
  </outline>
</glyph>
<glyph name="fl" format="1">
  <advance width="421"/>
  <unicode hex="FB02"/>
  <outline>
    <contour>
      <point x="394" y="0" type="line"/>
      <point x="266" y="0" type="line"/>
      <point x="266" y="681" type="line"/>
      <point x="394" y="729" type="line"/>
    </contour>
    <contour>
      <point x="243" y="609" type="line"/>
      <point x="232" y="613"/>
      <point x="220" y="615"/>
      <point x="206" y="615" type="curve" smooth="yes"/>
      <point x="186" y="615"/>
      <point x="176" y="603"/>
      <point x="176" y="580" type="curve" smooth="yes"/>
      <point x="176" y="525" type="line"/>
      <point x="229" y="525" type="line"/>
      <point x="229" y="411" type="line"/>
      <point x="176" y="411" type="line"/>
      <point x="176" y="0" type="line"/>
      <point x="51" y="0" type="line"/>
      <point x="51" y="411" type="line"/>
      <point x="14" y="411" type="line"/>
      <point x="14" y="525" type="line"/>
      <point x="51" y="525" type="line"/>
      <point x="51" y="604" type="line" smooth="yes"/>
      <point x="51" y="686"/>
      <point x="106" y="726"/>
      <point x="164" y="726" type="curve" smooth="yes"/>
      <point x="206" y="726"/>
      <point x="224" y="724"/>
      <point x="243" y="719" type="curve"/>
    </contour>
  </outline>
</glyph>
<glyph name="bullet" format="1">
  <advance width="361"/>
  <outline>
    <contour>
      <point x="321" y="366" type="curve" smooth="yes"/>
      <point x="321" y="287"/>
      <point x="260" y="226"/>
      <point x="180" y="226" type="curve" smooth="yes"/>
      <point x="101" y="226"/>
      <point x="40" y="287"/>
      <point x="40" y="366" type="curve" smooth="yes"/>
      <point x="40" y="446"/>
      <point x="101" y="508"/>
      <point x="180" y="508" type="curve" smooth="yes"/>
      <point x="260" y="508"/>
      <point x="321" y="446"/>
    </contour>
  </outline>
</glyph>
<glyph name="macron" format="1">
  <advance width="330"/>
  <outline>
    <contour>
      <point x="298" y="600" type="line"/>
      <point x="32" y="600" type="line"/>
      <point x="32" y="694" type="line"/>
      <point x="298" y="694" type="line"/>
    </contour>
  </outline>
</glyph>
<glyph name="registered" format="1">
  <advance width="483"/>
  <outline>
    <contour>
      <point x="461" y="350" type="curve" smooth="yes"/>
      <point x="461" y="135"/>
      <point x="387" y="-11"/>
      <point x="241" y="-11" type="curve" smooth="yes"/>
      <point x="95" y="-11"/>
      <point x="22" y="135"/>
      <point x="22" y="350" type="curve" smooth="yes"/>
      <point x="22" y="565"/>
      <point x="95" y="711"/>
      <point x="241" y="711" type="curve" smooth="yes"/>
      <point x="387" y="711"/>
      <point x="461" y="565"/>
    </contour>
    <contour>
      <point x="401" y="350" type="curve" smooth="yes"/>
      <point x="401" y="527"/>
      <point x="356" y="655"/>
      <point x="241" y="655" type="curve" smooth="yes"/>
      <point x="126" y="655"/>
      <point x="82" y="527"/>
      <point x="82" y="350" type="curve" smooth="yes"/>
      <point x="82" y="173"/>
      <point x="126" y="45"/>
      <point x="241" y="45" type="curve" smooth="yes"/>
      <point x="356" y="45"/>
      <point x="401" y="173"/>
    </contour>
    <contour>
      <point x="345" y="160" type="line"/>
      <point x="265" y="160" type="line"/>
      <point x="237" y="330" type="line"/>
      <point x="230" y="330" type="line"/>
      <point x="230" y="160" type="line"/>
      <point x="152" y="160" type="line"/>
      <point x="152" y="559" type="line"/>
      <point x="250" y="559" type="line" smooth="yes"/>
      <point x="300" y="559"/>
      <point x="342" y="528"/>
      <point x="342" y="446" type="curve" smooth="yes"/>
      <point x="342" y="402"/>
      <point x="330" y="371"/>
      <point x="309" y="352" type="curve"/>
    </contour>
    <contour>
      <point x="262" y="443" type="curve" smooth="yes"/>
      <point x="262" y="484"/>
      <point x="257" y="497"/>
      <point x="238" y="497" type="curve" smooth="yes"/>
      <point x="230" y="497" type="line"/>
      <point x="230" y="389" type="line"/>
      <point x="237" y="389" type="line" smooth="yes"/>
      <point x="256" y="389"/>
      <point x="262" y="405"/>
    </contour>
  </outline>
</glyph>
